<svg version="1.0" xmlns="http://www.w3.org/2000/svg"
 width="1096.000000pt" height="1366.000000pt" viewBox="0 0 1096.000000 1366.000000"
 preserveAspectRatio="xMidYMid meet">

<g transform="translate(0.000000,1366.000000) scale(0.100000,-0.100000)"
fill="#000000" stroke="none">
<path d="M115 13540 c-17 -18 -17 -51 -11 -592 4 -315 9 -769 11 -1008 2 -239
7 -511 10 -605 2 -93 7 -282 11 -420 3 -137 9 -254 14 -258 4 -5 19 -5 31 -1
31 10 60 6 81 -13 19 -17 30 -51 17 -58 -4 -3 -6 -12 -2 -21 3 -9 0 -14 -8
-12 -9 2 -14 -6 -13 -24 1 -15 -3 -25 -8 -22 -4 3 -6 10 -3 15 4 5 1 9 -4 9
-15 0 -14 -23 1 -40 7 -8 2 -5 -12 6 -32 27 -67 36 -67 17 0 -10 7 -13 23 -9
17 5 26 1 34 -15 11 -19 10 -20 -12 -8 -21 11 -22 11 -9 -5 8 -9 10 -16 5 -14
-5 2 -10 -1 -11 -6 -1 -5 -7 -12 -14 -17 -7 -4 -13 -24 -14 -43 -1 -20 0 -34
3 -32 2 3 21 -2 41 -11 36 -15 151 -25 151 -12 0 4 15 5 33 2 57 -8 417 -12
413 -5 -2 4 6 7 19 7 13 0 21 -3 19 -6 -4 -8 336 -2 402 6 50 7 51 7 58 -21 9
-35 13 -73 21 -219 4 -60 8 -126 10 -145 8 -75 5 -578 -3 -601 -5 -14 -5 -138
1 -299 12 -370 12 -412 -1 -436 -8 -16 -7 -37 5 -90 8 -38 14 -96 14 -128 -2
-57 -24 -126 -41 -126 -5 0 -12 -9 -15 -20 -5 -15 2 -31 24 -55 17 -20 34 -47
37 -61 8 -31 0 -89 -17 -129 -17 -42 -17 -46 3 -87 25 -51 24 -162 -1 -221
-19 -43 -19 -45 0 -87 26 -58 22 -168 -10 -232 -15 -33 -23 -66 -23 -110 0
-35 -5 -69 -11 -75 -11 -15 -73 -17 -82 -3 -3 6 -26 10 -49 10 -32 0 -50 -6
-70 -25 -15 -14 -30 -25 -35 -25 -6 0 -51 -75 -51 -85 0 -4 59 -24 87 -29 10
-2 44 3 74 11 95 25 100 25 126 1 14 -13 31 -35 39 -50 19 -37 18 -175 -1
-208 -8 -14 -17 -31 -21 -39 -4 -7 3 -33 15 -57 27 -57 28 -143 2 -200 -10
-23 -24 -45 -30 -48 -7 -5 -3 -23 14 -56 35 -70 34 -137 -4 -204 -15 -28 -29
-54 -30 -58 -7 -31 -13 -37 -31 -26 -10 6 -16 17 -13 24 2 6 -14 25 -36 40
-48 34 -60 56 -65 108 -5 57 9 97 45 128 26 22 30 30 20 42 -6 8 -22 17 -34
20 -26 7 -60 72 -56 107 2 13 0 30 -5 38 -5 7 -4 16 1 20 6 3 13 20 17 36 4
17 18 40 32 51 l24 22 -27 17 c-16 10 -32 24 -36 32 -10 17 -27 17 -27 -1 0
-32 -120 -49 -217 -31 -32 5 -40 11 -36 23 4 10 2 13 -5 8 -7 -4 -12 -1 -12 8
0 9 -4 16 -10 16 -5 0 -7 6 -4 14 3 8 1 17 -5 21 -6 3 -11 1 -11 -5 0 -7 -9
-24 -20 -40 -11 -15 -18 -29 -15 -31 5 -6 -18 -8 -112 -11 -39 -2 -70 -1 -67
1 2 2 -12 16 -31 31 -19 15 -32 30 -28 33 3 4 1 12 -4 19 -6 7 -9 23 -7 36 2
12 -1 22 -6 22 -10 0 -12 -12 -13 -62 0 -16 -4 -28 -9 -28 -5 0 -18 -9 -30
-20 -11 -10 -34 -22 -50 -26 -37 -8 -138 4 -138 17 0 5 -7 9 -16 9 -8 0 -20
13 -25 30 -7 18 -16 27 -22 24 -8 -4 -7 -2 0 7 7 7 13 28 13 46 0 25 -4 31
-15 27 -10 -4 -15 0 -15 11 0 9 5 13 10 10 14 -9 12 8 -3 24 -10 11 -9 13 5 8
15 -5 16 -4 6 13 -15 24 -29 12 -34 -27 -10 -74 -12 -291 -4 -328 6 -27 6 -54
-1 -76 -6 -20 -12 -220 -15 -469 -2 -239 -9 -628 -14 -865 -5 -236 -12 -635
-15 -885 -3 -250 -7 -555 -10 -677 -3 -122 -8 -972 -11 -1890 -7 -1604 -7
-1669 11 -1683 16 -13 628 -15 5375 -15 4747 0 5359 2 5375 15 18 14 18 81 10
1750 -5 954 -9 1816 -10 1915 -5 488 -17 1281 -20 1285 -2 3 -6 208 -10 455
-5 318 -4 462 4 491 8 29 8 49 0 75 -11 32 -13 115 -18 637 -2 135 -6 200 -13
196 -6 -4 -5 2 1 15 10 18 9 21 -6 22 -11 0 -13 3 -5 6 16 6 16 50 0 56 -10 4
-10 8 -2 14 16 11 44 81 44 110 0 24 -26 83 -36 83 -4 0 -19 -11 -35 -25 -49
-41 -92 -43 -150 -6 -56 34 -109 40 -130 15 -14 -18 -46 -32 -96 -44 -27 -7
-42 -2 -90 26 -63 39 -86 40 -123 6 -39 -36 -92 -48 -141 -32 -22 8 -50 22
-62 33 -12 10 -32 27 -45 37 -18 15 -21 23 -14 37 6 10 6 52 2 98 -4 44 -6 92
-5 107 0 16 -2 28 -6 28 -4 0 -5 30 -2 68 13 182 10 228 -11 215 -6 -4 -5 0 2
9 8 10 9 19 3 22 -10 7 -9 31 2 42 11 12 8 26 -4 18 -8 -4 -8 0 0 15 7 12 9
43 6 78 -19 186 -15 204 50 216 17 3 51 13 77 22 45 16 50 16 110 -4 73 -25
108 -26 163 -6 53 19 104 19 151 -1 29 -12 55 -14 109 -10 111 10 167 11 210
2 38 -7 42 -6 53 18 8 18 8 34 2 51 l-10 25 -162 0 c-90 0 -289 0 -443 0 -217
0 -285 2 -298 13 -21 14 -20 7 -32 608 -6 289 -5 330 9 358 9 17 24 31 34 32
9 0 214 1 454 1 404 1 437 3 441 19 3 9 2 22 -2 27 -4 8 -147 11 -449 10
l-443 -2 -26 26 c-22 23 -26 35 -28 109 -5 140 -5 378 0 489 3 58 6 141 8 185
1 44 10 103 19 132 9 28 14 53 11 56 -8 9 32 17 57 11 40 -9 199 -13 204 -6 2
4 53 6 113 5 182 -5 213 -3 213 12 0 6 3 7 8 0 10 -14 46 -16 210 -14 88 1
104 4 112 19 20 38 1 110 -29 110 -14 0 -14 2 -1 10 12 8 11 10 -7 10 -13 0
-23 -4 -23 -10 0 -9 -69 -4 -79 6 -2 2 -10 -1 -17 -7 -7 -6 -19 -7 -26 -3 -17
11 -107 11 -101 0 5 -8 -57 -4 -134 10 -18 3 -33 1 -33 -3 0 -5 -27 -10 -61
-11 -46 -2 -59 1 -53 10 5 10 4 10 -6 1 -9 -9 -17 -9 -30 0 -14 8 -22 8 -32
-1 -9 -7 -19 -8 -28 -2 -20 13 -33 12 -25 -1 4 -6 -3 -5 -15 3 -18 10 -24 10
-27 1 -3 -7 -9 -13 -14 -13 -6 0 -7 5 -4 10 4 6 -16 9 -54 8 -34 -2 -61 -6
-61 -10 0 -3 -9 -4 -20 -1 -21 6 -24 12 -15 35 4 10 17 13 42 10 28 -4 34 -2
28 9 -5 8 -5 11 -1 7 5 -4 19 -3 32 2 13 5 24 7 24 4 0 -2 -10 -8 -22 -13 -15
-5 8 -8 65 -7 64 2 91 6 98 17 7 12 9 11 9 -2 0 -9 9 -19 20 -22 11 -3 18 -1
14 4 -3 5 0 9 5 9 6 0 11 -5 11 -12 0 -8 3 -9 10 -2 7 7 29 8 56 4 24 -4 47
-3 50 2 3 4 16 5 29 2 12 -3 26 -1 30 5 3 6 10 9 14 6 5 -2 2 13 -5 36 -13 36
-12 42 3 64 43 57 126 22 116 -49 -3 -23 -1 -36 7 -36 6 0 8 -5 4 -12 -5 -9
-2 -8 9 1 15 12 17 12 12 -1 -4 -9 1 -18 10 -22 9 -3 14 -2 11 3 -3 5 3 11 14
14 11 3 18 1 14 -4 -3 -5 2 -9 11 -9 9 0 13 5 10 10 -3 6 -2 10 4 10 5 0 12
-8 14 -17 4 -17 5 -17 6 0 0 10 -6 20 -14 23 -8 4 -15 13 -15 21 0 8 -4 11
-10 8 -5 -3 -10 -1 -10 4 0 6 5 11 11 11 5 0 8 4 4 9 -3 5 -1 12 5 16 6 4 8
10 6 14 -11 17 52 10 71 -8 11 -11 22 -18 24 -16 2 2 4 -8 4 -21 0 -22 -1 -23
-13 -7 -12 16 -12 14 -6 -12 9 -41 12 -45 35 -45 11 0 17 5 14 10 -3 6 1 10 9
10 13 0 16 13 17 58 1 31 3 68 4 82 2 14 6 135 9 270 3 135 8 335 11 445 3
110 8 391 10 625 2 234 7 667 11 963 6 504 5 539 -12 558 -17 19 -86 19 -5364
19 -5310 0 -5347 0 -5365 -20z m5005 -760 c0 -5 -4 -10 -10 -10 -5 0 -10 -13
-10 -30 0 -16 -4 -30 -10 -30 -5 0 -10 14 -10 30 0 17 -4 30 -10 30 -5 0 -10
5 -10 10 0 6 14 10 30 10 17 0 30 -4 30 -10z m50 -26 c11 -13 10 -16 -10 -21
-22 -6 -23 -7 -4 -14 17 -7 17 -8 -4 -8 -27 -1 -39 23 -22 44 16 19 24 19 40
-1z m54 10 c9 -3 16 -17 16 -30 0 -19 -5 -24 -25 -24 -29 0 -36 29 -7 31 16 1
16 2 -1 6 -9 2 -15 9 -12 14 7 11 9 11 29 3z m113 -29 c1 -20 0 -23 -4 -7 -6
27 -23 29 -23 2 0 -11 -4 -20 -10 -20 -5 0 -10 9 -10 20 0 11 -4 20 -10 20 -5
0 -10 -9 -10 -20 0 -11 -4 -20 -10 -20 -10 0 -14 42 -5 51 2 3 21 5 42 4 35 0
38 -2 40 -30z m-24 -108 c20 -11 44 -32 53 -45 l16 -25 23 29 23 29 -5 -48
c-5 -41 -2 -52 18 -73 13 -14 45 -35 71 -46 33 -14 48 -26 48 -39 0 -25 -41
-25 -81 -2 -35 21 -65 8 -63 -27 l1 -22 -17 22 -17 23 -17 -25 c-40 -60 -166
-89 -235 -53 -70 35 -110 123 -91 195 32 119 159 169 273 107z m511 -1 c41
-17 58 -43 45 -68 -10 -19 -44 -24 -54 -8 -3 6 -19 10 -36 10 -46 0 -36 -28
19 -51 69 -30 92 -55 92 -102 0 -58 -42 -97 -105 -97 -55 0 -112 24 -120 51
-4 11 -10 17 -14 14 -5 -2 -8 13 -7 34 1 48 -13 65 -86 102 -32 16 -58 33 -58
39 0 18 23 22 61 10 45 -15 74 0 65 33 -4 18 -4 18 17 -2 l23 -20 12 20 c14
22 65 48 95 49 10 0 33 -6 51 -14z m1477 -1834 c7 -18 7 -38 0 -61 -8 -27 -6
-43 9 -82 19 -47 19 -51 2 -106 -13 -44 -16 -73 -10 -118 4 -33 4 -75 1 -93
-3 -20 1 -51 12 -78 11 -30 15 -56 10 -77 -4 -18 -7 -54 -7 -82 2 -179 3 -536
3 -617 -1 -94 -2 -98 -32 -133 l-31 -35 26 -31 c31 -36 29 -15 26 -275 -1
-174 1 -217 14 -241 15 -30 12 -66 -7 -91 -13 -17 -15 -121 -3 -152 6 -14 21
-35 33 -47 13 -13 21 -20 19 -17 -3 4 5 15 17 24 22 18 22 19 22 389 0 366 0
371 22 392 21 22 24 22 480 24 428 2 493 5 493 25 0 20 -63 23 -486 25 -248 2
-460 6 -470 9 -11 3 -27 18 -36 33 -14 25 -16 67 -12 353 2 179 4 369 3 423 0
58 4 104 11 112 15 18 16 242 1 278 -15 38 -14 78 4 120 11 27 12 43 5 62 -14
38 -12 53 10 75 27 27 66 25 102 -5 34 -29 44 -31 52 -10 3 8 12 15 21 15 8 0
15 5 15 10 0 6 18 10 40 10 30 0 48 -7 72 -29 31 -27 32 -32 22 -60 -7 -16 -9
-33 -5 -36 3 -4 6 -10 7 -13 0 -4 7 -20 14 -37 7 -16 13 -51 13 -77 0 -40 3
-46 18 -43 11 2 24 7 31 11 7 4 8 3 4 -4 -4 -7 -1 -12 9 -12 9 0 13 4 10 10
-4 6 2 7 17 1 13 -4 33 -7 46 -6 12 1 22 -3 22 -8 0 -6 2 -8 5 -5 3 3 8 29 10
58 3 29 14 68 24 86 13 21 18 44 15 61 -7 38 -22 51 -31 27 -8 -23 -29 -40
-64 -53 -32 -11 -109 19 -109 44 0 8 -5 15 -10 15 -21 0 11 41 44 57 42 20 98
11 126 -20 13 -13 24 -18 28 -12 17 24 45 38 83 42 44 5 89 -12 89 -33 0 -7 6
-14 13 -17 9 -4 9 -8 -1 -23 -22 -34 -26 -48 -14 -52 7 -2 9 -9 6 -14 -4 -7
-2 -8 4 -4 6 3 15 -1 20 -10 8 -14 12 -12 30 13 13 18 18 33 12 39 -19 19 -17
58 4 81 32 37 102 26 119 -20 8 -20 -12 -69 -24 -61 -5 3 -9 1 -9 -5 0 -5 14
-19 31 -32 41 -29 53 -15 54 61 1 47 5 63 20 74 17 12 23 12 39 2 35 -23 41
-41 26 -85 -12 -38 -12 -41 14 -71 33 -39 33 -70 1 -124 -25 -42 -25 -44 -9
-96 9 -29 13 -62 9 -74 -15 -52 -14 -77 5 -125 20 -52 20 -53 1 -95 -18 -41
-18 -45 -1 -92 10 -30 15 -65 12 -89 -3 -22 -5 -60 -4 -85 2 -43 2 -73 -1
-190 0 -30 0 -68 1 -85 1 -16 0 -74 -2 -128 -3 -94 -4 -99 -34 -130 l-31 -32
29 -43 29 -43 -5 -222 c-3 -131 -1 -228 4 -236 15 -21 59 -5 76 27 11 21 13
69 9 228 l-5 201 25 28 24 28 514 2 c283 1 516 3 519 5 3 1 9 2 13 1 5 -1 6 3
2 9 -3 5 0 10 7 10 7 0 4 6 -7 12 -14 8 -168 12 -535 12 -564 1 -536 -2 -559
58 -16 45 -2 671 21 888 6 51 18 54 194 56 89 1 167 5 173 8 5 4 12 3 14 -1 6
-10 604 -8 633 1 39 12 66 106 30 106 -7 0 -6 4 2 9 10 6 3 10 -22 15 -20 4
-41 4 -48 0 -6 -4 -8 -3 -5 3 5 7 -12 11 -48 12 -30 0 -55 -4 -55 -10 0 -6 -7
-6 -19 1 -11 5 -28 10 -38 9 -16 0 -16 -1 2 -9 16 -7 17 -9 3 -9 -9 -1 -20 4
-24 10 -5 9 -50 9 -99 -1 -5 -1 -12 -2 -15 -1 -21 8 -155 9 -160 2 -3 -6 -20
-7 -43 -2 -20 5 -37 6 -37 2 0 -12 -54 -5 -58 8 -3 9 -9 7 -23 -5 -11 -10 -19
-12 -19 -6 0 7 -5 12 -11 12 -5 0 -8 -3 -5 -8 2 -4 -26 -7 -64 -7 -37 0 -66 3
-64 6 2 4 -3 9 -10 12 -8 3 -16 1 -18 -5 -4 -10 -52 -14 -118 -10 -51 4 -66
138 -22 199 18 25 19 31 6 53 -7 14 -13 31 -14 38 -1 39 71 57 96 25 18 -24
17 -58 0 -76 -15 -15 -4 -37 19 -37 5 0 18 -15 29 -33 14 -24 20 -28 25 -17
13 33 39 61 61 65 28 5 39 15 18 15 -9 0 -23 11 -32 25 -13 19 -14 29 -5 49
10 21 18 24 46 22 54 -4 70 -48 33 -88 l-20 -22 29 -12 c32 -13 61 -58 58 -88
-1 -11 4 -21 12 -24 9 -3 11 1 6 16 -6 21 7 55 29 78 6 6 32 11 57 11 41 1 48
-3 64 -29 15 -27 27 -109 15 -105 -3 1 -7 -2 -10 -8 -3 -5 10 -11 28 -13 37
-4 41 9 12 38 -11 11 -16 20 -11 20 5 0 14 20 20 44 8 32 17 47 33 52 34 11
90 5 109 -12 16 -15 42 -84 31 -84 -4 0 -8 -14 -9 -30 -2 -21 2 -30 13 -30 9
0 12 5 8 13 -4 6 -4 9 1 5 4 -4 15 -2 24 5 14 11 14 10 2 -5 -7 -10 -12 -18
-10 -19 26 -4 89 -2 89 4 0 4 7 7 15 7 8 0 15 -4 15 -10 0 -19 31 -10 40 13 7
17 9 18 9 5 1 -12 9 -18 25 -18 22 0 23 2 15 43 -4 24 -4 43 2 45 5 2 9 11 9
21 0 16 50 68 60 62 2 -1 7 6 11 16 4 10 8 12 8 6 1 -7 5 -13 11 -13 5 0 6 7
3 17 -4 11 -3 14 6 9 6 -4 10 -13 9 -19 -1 -7 4 -23 11 -37 9 -16 13 -54 12
-110 -1 -69 -5 -90 -22 -114 l-21 -28 27 -49 c18 -33 28 -69 31 -111 2 -35 6
-90 9 -123 3 -33 8 -215 11 -405 l7 -345 -32 -34 c-30 -32 -39 -51 -23 -51 19
0 42 -65 42 -119 0 -32 3 -61 7 -65 30 -30 32 -131 4 -159 -19 -19 -13 -132 9
-172 25 -45 25 -66 -1 -116 -17 -34 -21 -64 -24 -192 -2 -84 -5 -159 -5 -167
0 -8 -8 -25 -18 -38 -15 -19 -21 -21 -52 -12 -30 9 -182 10 -830 7 -145 -1
-240 6 -257 18 -15 11 -18 35 -20 174 -2 88 -8 172 -13 185 -5 14 -21 33 -35
42 -24 16 -27 16 -43 1 -13 -14 -17 -41 -18 -149 -3 -233 -4 -242 -22 -265
-16 -20 -22 -22 -77 -14 -37 5 -65 5 -72 -1 -7 -5 -17 -7 -22 -4 -5 4 -13 1
-17 -5 -4 -7 -3 -9 4 -5 5 3 12 3 14 -2 1 -4 28 -17 58 -28 42 -16 61 -18 82
-11 22 9 33 6 62 -13 19 -14 32 -28 30 -32 -9 -15 7 -69 19 -65 7 2 12 20 13
40 2 70 58 97 118 58 30 -20 45 -19 86 9 14 9 50 20 81 23 50 6 63 4 113 -23
55 -30 56 -30 221 -30 135 0 170 3 190 16 13 9 51 18 83 21 46 4 67 1 102 -16
57 -28 86 -27 127 5 43 32 65 28 120 -25 37 -36 41 -44 33 -70 -4 -16 -20 -46
-34 -67 -14 -21 -26 -51 -26 -66 0 -29 19 -78 30 -78 13 0 30 -70 24 -97 -4
-15 -20 -48 -36 -72 -35 -55 -35 -66 -2 -115 49 -71 46 -119 -10 -202 -27 -41
-25 -54 18 -119 32 -47 33 -65 1 -101 -14 -16 -30 -35 -36 -41 -18 -23 -51
-14 -95 27 -48 44 -40 43 -214 40 -115 -2 -126 -4 -155 -26 -16 -14 -40 -33
-52 -42 -12 -9 -22 -22 -23 -29 0 -13 -40 -39 -40 -27 0 3 -6 1 -14 -5 -10 -9
-16 -8 -26 4 -7 9 -19 14 -27 11 -7 -3 -13 0 -13 6 0 7 -18 29 -41 50 -35 33
-43 36 -62 26 -35 -18 -58 -50 -56 -78 0 -14 0 -28 -1 -32 -1 -5 -3 -12 -4
-18 0 -5 -5 -9 -11 -7 -5 1 -9 9 -7 17 2 13 1 13 -7 1 -9 -14 -92 -18 -113 -4
-6 3 -8 0 -6 -8 3 -8 14 -13 26 -13 12 1 19 -3 16 -7 -3 -5 -10 -7 -15 -4 -5
4 -9 -1 -9 -9 0 -17 -15 -21 -25 -7 -3 5 -7 35 -10 67 -4 53 -7 60 -47 95 -24
20 -58 40 -75 44 -26 5 -33 11 -33 30 0 13 6 26 13 28 8 4 9 8 2 14 -6 4 -12
22 -12 38 -1 17 -5 77 -8 135 -4 58 -6 116 -4 130 5 39 -3 349 -10 380 -1 3
-14 20 -31 38 -25 28 -33 31 -50 22 -46 -24 -47 -38 -51 -511 -1 -162 -4 -299
-7 -306 -2 -7 -24 -24 -48 -38 -40 -24 -45 -30 -42 -58 3 -29 6 -32 37 -33 27
-1 42 -10 73 -45 30 -35 37 -49 31 -69 -9 -34 -9 -88 0 -126 7 -26 4 -36 -17
-59 -32 -35 -32 -40 0 -78 20 -23 24 -36 18 -56 -10 -34 -11 -80 -1 -107 5
-14 1 -28 -13 -45 -12 -13 -30 -34 -41 -46 -10 -13 -14 -23 -9 -23 6 0 10 -6
10 -14 0 -16 21 -40 47 -55 26 -14 19 -111 -10 -133 -45 -36 -54 -49 -52 -78
2 -35 -16 -45 -37 -20 -14 16 -14 20 6 40 11 13 16 20 10 17 -6 -3 -11 0 -11
8 0 8 5 11 11 8 7 -4 7 -1 -1 8 -6 8 -13 55 -16 105 -2 51 -8 97 -12 104 -5 9
-4 11 3 6 7 -4 12 -4 12 1 0 16 -46 30 -70 21 -33 -12 -170 -7 -200 7 -32 16
-61 11 -77 -11 -11 -14 -10 -22 1 -40 36 -53 24 -184 -20 -225 -21 -19 -36
-23 -93 -24 -39 0 -79 6 -93 14 -24 12 -54 57 -50 74 5 18 -17 4 -24 -15 -3
-13 -12 -30 -19 -38 -11 -13 -27 -59 -30 -85 -1 -5 -5 -20 -9 -32 -8 -24 7
-61 32 -79 20 -15 18 -81 -4 -105 -24 -26 -84 -41 -141 -33 -57 7 -91 26 -103
60 -5 13 -15 24 -21 24 -7 0 -10 -3 -6 -6 3 -3 -5 -18 -18 -31 -17 -19 -29
-24 -48 -19 -14 3 -28 13 -31 22 -7 18 28 104 43 104 5 0 22 -13 37 -29 l28
-30 15 23 c9 13 24 34 33 48 14 18 16 31 9 55 -5 17 -5 36 -1 43 9 14 -8 60
-22 60 -5 0 -15 15 -23 33 -16 39 -12 187 6 197 7 5 5 13 -6 24 -9 9 -21 14
-26 10 -18 -11 -70 8 -85 31 -13 21 -14 30 -3 62 15 47 14 89 -4 133 -15 36
-9 138 10 190 10 27 10 27 -1 87 -8 44 -34 77 -52 65 -18 -11 -54 -85 -54
-110 0 -13 9 -42 19 -65 28 -61 29 -123 3 -174 -25 -48 -27 -77 -9 -113 27
-51 26 -58 -5 -101 -16 -23 -31 -54 -33 -68 -2 -14 -6 -37 -9 -51 -3 -14 -7
-44 -8 -67 -3 -49 -17 -35 -18 17 -2 109 -5 125 -23 128 -16 3 -17 1 -7 -17 6
-12 9 -25 6 -30 -3 -5 -6 -38 -7 -75 -1 -42 -5 -63 -12 -59 -6 3 -7 1 -3 -6 4
-6 -2 -23 -13 -37 -18 -24 -19 -60 -1 -49 5 3 12 1 15 -5 4 -6 1 -9 -6 -8 -12
3 -48 -55 -49 -78 0 -7 8 -22 18 -34 28 -35 69 -21 78 25 4 22 2 41 -6 50 -20
24 -23 75 -4 75 8 0 13 4 10 8 -7 12 8 32 19 24 30 -21 57 -75 51 -103 -3 -16
-9 -42 -12 -59 -4 -21 0 -40 15 -65 25 -43 26 -63 5 -93 -31 -45 -51 -46 -91
-6 -35 36 -37 36 -46 16 -13 -28 -71 -49 -133 -46 -53 2 -124 22 -124 36 0 16
-36 7 -64 -16 -16 -14 -35 -22 -43 -19 -23 9 -14 -13 16 -40 48 -42 54 -153
11 -205 -28 -33 -128 -43 -176 -17 -37 20 -42 30 -49 99 -6 60 24 136 53 136
39 0 30 14 -24 38 l-56 26 -35 -19 c-45 -25 -192 -25 -238 -1 -41 22 -52 20
-71 -9 -16 -24 -16 -27 5 -49 18 -19 21 -34 21 -97 0 -96 -7 -117 -41 -134
-40 -21 -62 -19 -88 9 l-23 24 26 44 c27 46 26 50 -13 114 -11 17 -11 25 2 49
13 26 13 33 0 61 -18 36 -15 43 45 108 45 49 62 55 82 32 14 -18 38 -11 63 18
15 17 19 18 24 6 10 -25 70 -80 88 -80 22 0 88 66 83 82 -11 34 -103 47 -160
23 -11 -4 -24 2 -39 19 -28 33 -44 33 -72 0 l-22 -26 -43 18 c-48 19 -62 43
-62 102 1 26 10 47 30 72 39 45 38 67 -5 117 -44 52 -49 115 -11 160 58 71 59
95 3 155 -38 41 -43 51 -39 83 3 22 15 47 33 65 16 15 29 33 29 39 0 6 5 11
11 11 19 0 2 60 -28 96 -58 74 -60 80 -34 108 14 14 44 31 69 38 52 15 62 39
26 63 -14 9 -30 28 -36 43 -21 48 -80 132 -93 132 -12 0 -24 -37 -43 -135 -5
-27 -12 -57 -16 -65 -4 -10 6 -34 24 -62 30 -45 30 -48 16 -77 -23 -44 -29
-129 -12 -186 8 -27 13 -51 11 -54 -4 -8 -18 -180 -16 -201 1 -8 2 -96 2 -196
1 -134 -2 -187 -12 -205 -7 -13 -14 -26 -14 -29 -5 -27 -20 -49 -45 -63 -36
-21 -39 -52 -7 -61 48 -12 77 -43 77 -80 -1 -59 -59 -102 -147 -109 -25 -1
-20 -12 5 -12 27 -1 62 -16 62 -26 0 -17 20 -9 21 9 0 13 2 12 9 -5 5 -13 16
-23 25 -23 13 0 16 -11 14 -52 -1 -29 0 -57 1 -63 7 -28 -5 -38 -60 -49 -3 -1
-18 -10 -35 -21 -23 -16 -46 -20 -108 -19 -75 0 -81 2 -104 28 -22 25 -24 37
-21 90 2 34 6 68 8 76 6 18 44 50 59 50 24 0 8 16 -42 43 -53 28 -87 34 -87
17 0 -17 -68 -28 -137 -23 -55 4 -75 10 -103 33 l-36 28 -32 -29 c-29 -26 -39
-29 -103 -29 -73 0 -136 20 -146 47 -8 20 -27 16 -53 -12 -28 -30 -51 -32 -75
-5 -21 24 -15 58 19 97 l25 28 35 -19 c34 -18 35 -18 64 2 l28 21 45 -30 c53
-35 60 -35 85 -8 33 36 51 41 80 23 24 -17 28 -17 59 0 33 18 33 18 75 -13 24
-17 49 -31 56 -31 7 0 29 14 49 31 29 26 40 30 63 23 15 -4 38 -6 52 -5 52 4
62 1 91 -23 39 -33 60 -33 93 1 66 66 51 87 -67 90 -65 2 -83 6 -98 22 -24 26
-24 33 4 50 14 10 54 15 114 16 55 1 98 7 107 14 10 8 13 28 11 69 -2 31 -4
75 -4 98 -1 65 -16 76 -107 80 -43 2 -92 6 -108 9 -31 5 -90 60 -81 75 3 5 1
11 -5 15 -7 4 -7 12 0 25 11 21 10 70 -2 70 -4 0 -4 22 -1 49 5 42 3 50 -13
54 -16 4 -149 3 -205 -2 -20 -1 -25 -81 -7 -93 9 -5 8 -8 -4 -8 -20 0 -24 -15
-7 -26 6 -3 8 -16 4 -28 -15 -49 -18 -78 -21 -204 -4 -128 -25 -249 -43 -237
-5 2 -13 -6 -19 -20 -10 -22 -16 -24 -97 -23 l-86 1 -37 38 -37 39 -27 -24
c-16 -13 -28 -28 -28 -35 0 -19 -35 -12 -48 10 -11 17 -11 20 0 13 10 -6 11
-5 2 7 -23 29 -26 78 -8 125 17 44 17 48 -1 96 -21 60 -21 157 1 199 19 39 18
78 -6 124 -26 51 -28 103 -6 150 29 61 31 100 7 155 -25 57 -21 87 12 95 12 3
101 7 197 9 184 4 215 9 224 33 5 11 19 13 75 7 38 -3 90 -3 115 0 39 6 46 11
46 29 -1 26 -59 67 -96 67 -14 0 -46 -14 -70 -31 l-45 -30 -54 30 c-55 31 -55
31 -209 31 -167 0 -175 3 -174 55 1 17 -9 49 -21 72 -23 45 -27 83 -11 99 19
19 19 113 -1 154 -23 47 -24 108 -4 157 19 46 19 77 -2 134 -15 44 -15 49 0
82 11 22 17 60 17 103 0 77 16 104 62 104 16 0 47 9 70 21 37 19 62 23 128 21
14 0 45 0 70 -1 25 0 54 -1 65 -2 37 -3 53 1 59 17 4 9 4 20 0 23 -3 3 -63 6
-132 6 -70 0 -168 4 -219 9 -82 8 -95 12 -119 37 -26 27 -27 30 -15 70 10 33
10 51 1 85 -10 35 -10 50 1 76 14 35 14 75 0 92 -16 20 -15 187 2 231 14 36
13 43 -5 90 -10 27 -26 55 -33 61 -8 6 -13 14 -10 17 3 4 2 5 -2 2 -14 -11
-33 -81 -33 -123 0 -24 7 -57 16 -75 19 -35 21 -162 3 -183 -24 -29 -28 -72
-9 -106 13 -26 17 -53 15 -121 -1 -81 -4 -90 -32 -125 l-30 -37 -184 -1 c-219
-1 -219 -1 -219 -14 0 -24 86 -46 107 -28 20 17 224 18 230 2 2 -7 10 -11 16
-9 7 3 25 -6 41 -19 26 -22 29 -30 35 -117 4 -52 13 -105 20 -118 10 -18 10
-36 2 -85 -8 -38 -9 -78 -3 -106 4 -25 7 -70 4 -100 -2 -30 -5 -107 -7 -170
-2 -71 -9 -130 -18 -155 -8 -22 -13 -55 -11 -74 2 -20 -2 -44 -11 -57 -13 -20
-18 -21 -52 -11 -21 5 -86 12 -144 14 -87 3 -108 1 -119 -11 -7 -9 -18 -16
-25 -16 -7 0 -18 -7 -25 -15 -10 -13 -17 -12 -50 5 -21 11 -41 24 -45 30 -10
17 -51 11 -79 -11 -14 -11 -26 -17 -26 -13 0 4 -10 -2 -22 -13 -13 -11 -36
-25 -53 -30 -28 -10 -27 -10 20 -12 28 -1 93 -2 144 -3 87 -1 97 -3 118 -26
l22 -24 170 5 171 5 19 -27 c14 -19 18 -37 14 -57 -3 -16 -5 -54 -5 -84 0 -53
0 -229 -1 -320 0 -25 1 -61 1 -80 4 -76 -6 -337 -13 -365 -8 -28 -35 -66 -35
-48 0 20 -96 43 -175 42 -88 -1 -107 1 -117 16 -14 19 -62 12 -80 -11 -10 -12
-18 -27 -18 -32 0 -20 -46 -38 -95 -36 -75 2 -78 3 -72 18 3 8 -1 17 -9 20 -9
3 -12 11 -8 17 4 8 3 9 -4 5 -7 -4 -17 3 -24 18 -15 35 -47 33 -81 -5 -15 -17
-27 -35 -27 -41 0 -5 -5 -6 -10 -3 -5 3 -10 -1 -10 -9 0 -16 -12 -19 -77 -18
-29 0 -68 23 -58 34 2 2 -7 17 -22 33 -41 47 -53 88 -51 167 0 40 4 78 7 83 9
15 8 28 -2 48 -7 15 -11 16 -23 6 -8 -7 -53 -14 -99 -16 l-84 -4 -28 39 c-28
38 -28 42 -26 148 4 124 4 117 0 284 -1 87 2 138 12 168 8 23 17 43 20 43 3 1
29 3 56 4 28 2 63 8 79 14 l29 12 -37 35 c-39 37 -51 39 -113 19 -15 -5 -28 0
-43 15 -20 20 -21 28 -14 74 4 28 7 62 6 76 -1 14 -1 79 -1 145 0 66 -1 145
-2 175 -1 53 -2 188 0 280 0 25 -1 79 -2 121 -2 69 1 80 26 116 26 37 27 44
18 84 -6 24 -12 170 -15 324 -2 169 -9 302 -16 335 -17 73 1 288 28 338 11 19
10 30 -8 69 -19 43 -20 64 -19 282 2 265 3 291 14 411 5 47 10 105 11 130 13
172 8 165 126 165 51 1 98 4 105 8 6 4 14 4 17 -1 10 -17 879 -4 907 13 3 3
14 -4 23 -13 11 -13 17 -45 21 -108 3 -49 10 -129 15 -179 5 -49 9 -108 9
-130 0 -22 0 -148 0 -280 1 -132 1 -246 1 -253 0 -8 -12 -26 -27 -41 -34 -33
-35 -40 -11 -66 22 -23 25 -37 31 -127 3 -36 11 -76 20 -88 15 -21 15 -21 38
17 15 23 26 61 30 101 4 36 13 71 22 79 13 13 79 16 487 19 356 2 475 6 486
15 22 18 0 28 -66 30 -78 1 -277 1 -325 -1 -42 -1 -537 6 -567 9 -38 3 -48 28
-48 129 0 392 3 458 36 772 4 36 7 70 7 77 0 7 3 11 6 11 3 -1 20 4 36 11 42
18 57 20 78 9 25 -13 237 -18 259 -7 10 5 18 6 18 1 0 -12 33 -11 41 1 10 14
98 11 124 -5 18 -11 96 -8 89 4 -5 7 -2 8 6 3 13 -8 170 -9 207 -1 12 2 51 6
88 7 72 3 94 -9 100 -52 2 -13 6 -36 9 -50 7 -31 8 -80 3 -134 -3 -22 2 -59
10 -83 8 -24 11 -53 7 -65 -9 -28 -6 -254 4 -328 5 -30 4 -68 0 -85 -5 -16 -7
-62 -6 -103 2 -71 1 -74 -30 -102 -18 -16 -32 -32 -32 -36 0 -4 10 -18 23 -31
l22 -24 -2 -480 c-1 -470 -2 -482 -22 -509 -26 -35 -26 -40 -1 -89 15 -29 20
-59 20 -112 0 -56 5 -81 21 -107 19 -32 20 -40 9 -90 -8 -41 -9 -72 -1 -116 6
-33 13 -73 16 -89 2 -15 -2 -41 -10 -56 -10 -19 -13 -53 -11 -107 3 -89 20
-130 47 -110 25 20 58 81 60 113 2 26 -27 93 -52 118 -17 19 -9 66 20 113 32
51 38 105 14 124 -7 6 -13 17 -13 24 0 7 -6 18 -14 24 -13 11 -11 19 10 58 16
31 24 62 24 97 0 80 7 95 49 102 55 9 90 24 109 49 9 12 24 20 32 17 8 -2 4 4
-9 13 -14 11 -49 20 -90 22 -36 3 -72 11 -80 19 -16 15 -18 44 -21 392 -1 128
-6 249 -11 270 -5 20 -6 93 -2 161 5 107 9 127 28 149 l22 25 509 2 c519 1
587 6 555 38 -9 9 -136 12 -519 13 -279 1 -516 2 -528 3 -12 0 -33 12 -47 25
-23 22 -26 31 -28 112 -1 49 -2 103 -2 119 -2 84 14 440 22 508 6 43 10 81 9
85 -8 33 25 149 42 150 3 0 25 5 49 12 32 8 51 9 68 1 36 -17 94 -13 133 8 35
19 36 19 78 -4 39 -21 52 -22 160 -19 64 3 123 6 130 9 38 14 37 119 -2 132
-31 11 -39 10 -55 -1 -11 -8 -13 -8 -8 0 9 15 -155 16 -166 1 -6 -9 -10 -9
-13 0 -4 9 -11 9 -32 0 -15 -6 -30 -16 -35 -22 -5 -6 -11 -4 -17 6 -6 10 -22
16 -42 15 -18 -1 -39 4 -45 11 -18 16 -16 26 3 19 12 -5 15 -2 10 9 -4 11 -2
14 7 8 15 -10 157 -12 163 -2 2 4 13 5 24 2 21 -5 28 11 10 22 -6 4 -8 10 -5
15 3 5 1 11 -4 14 -5 3 -2 26 7 50 9 25 20 42 24 40 4 -3 8 -2 8 3 0 4 20 8
44 8 32 1 46 -4 50 -15 3 -8 15 -30 26 -48 11 -18 16 -31 10 -27 -11 7 -11 7
-15 -45 -2 -19 -1 -29 2 -21 4 9 8 10 12 2 5 -8 12 -7 26 2 10 8 15 19 11 26
-6 9 -12 9 -24 -1 -14 -11 -14 -9 1 15 10 15 17 33 15 40 -3 15 30 77 40 76
22 -4 32 3 32 22 0 18 -2 20 -16 9 -8 -8 -14 -9 -12 -4 1 5 -4 19 -11 32 -18
33 6 69 45 66 16 -1 31 -3 34 -4 3 -1 9 -2 13 -1 5 1 6 -3 3 -8 -4 -5 -2 -12
4 -16 13 -8 13 -45 -1 -45 -5 0 -7 -4 -4 -10 3 -6 -1 -7 -9 -4 -11 4 -16 0
-16 -11 0 -10 -5 -13 -12 -9 -7 4 -8 3 -4 -4 4 -7 16 -12 27 -12 10 0 19 -4
19 -10 0 -5 5 -10 11 -10 6 0 17 -7 25 -15 9 -8 11 -15 5 -15 -7 0 -7 -8 -2
-23 6 -14 6 -30 0 -38 -13 -21 -11 -39 6 -39 12 0 14 10 9 48 -5 45 -2 51 31
86 36 39 44 58 23 54 -7 -2 -12 3 -10 10 1 6 -2 12 -7 12 -13 0 -2 36 17 54
63 55 149 -18 92 -79 -19 -20 -19 -21 1 -34 17 -10 20 -10 14 1 -4 7 2 3 12
-9 15 -19 21 -20 35 -9 10 7 15 16 11 20 -4 4 -2 10 4 14 9 6 9 14 -1 34 -10
19 -11 29 -3 37 6 6 8 11 4 11 -4 0 1 9 11 21 37 45 84 41 103 -9z m1807 -30
c-4 -21 -44 -24 -59 -5 -9 11 -8 17 7 27 23 17 57 3 52 -22z m198 23 c11 -10
15 -34 5 -36 -39 -5 -53 -4 -62 8 -24 28 28 54 57 28z m204 -9 c0 -7 -5 -17
-12 -24 -17 -17 -52 15 -35 33 13 14 47 8 47 -9z m-4735 -75 c-3 -5 8 -30 24
-56 27 -43 32 -85 9 -85 -5 0 -9 -15 -7 -32 4 -65 -23 -88 -72 -63 -16 9 -31
15 -34 15 -3 0 -12 6 -20 14 -11 10 -23 12 -43 7 -15 -4 -34 -6 -42 -3 -12 4
-13 3 -3 -10 10 -12 10 -15 -2 -15 -8 0 -12 4 -9 9 3 4 1 8 -5 8 -5 0 -13 -5
-17 -11 -4 -8 -9 -7 -15 2 -10 17 -1 32 17 25 7 -3 16 0 20 6 5 7 2 8 -7 3 -8
-5 -11 -4 -6 1 5 5 13 10 18 10 5 1 14 2 19 3 7 1 6 7 -2 15 -7 8 -17 12 -21
9 -5 -3 -4 4 2 15 14 27 14 35 -1 26 -10 -5 -10 -4 -1 6 6 7 9 19 6 27 -3 8 0
13 8 11 8 -2 13 2 12 7 -3 17 44 16 83 0 20 -8 33 -19 29 -25 -3 -5 -2 -10 3
-10 6 0 8 -10 5 -22 -3 -13 -3 -20 1 -17 13 12 17 110 4 103 -7 -4 -8 -3 -4 4
4 6 13 9 20 6 7 -3 16 2 19 10 4 9 9 16 12 16 4 0 4 -4 0 -9z m1192 -17 c4
-20 7 -42 17 -129 4 -27 4 -62 1 -76 -6 -25 -8 -26 -43 -17 -20 5 -53 11 -72
13 -19 2 -38 4 -42 4 -15 2 -8 21 8 21 9 0 14 6 11 13 -4 10 2 13 19 9 22 -4
26 0 23 25 0 4 7 10 17 13 16 6 16 7 1 13 -9 3 -17 2 -17 -3 0 -13 -47 -13
-55 0 -4 6 -14 9 -22 8 -21 -4 -25 29 -4 36 9 4 27 13 41 21 13 8 27 10 30 5
7 -11 37 -7 51 7 6 6 12 23 12 38 0 29 18 29 24 -1z m-4683 -41 c17 -117 17
-159 3 -172 -15 -12 -47 -11 -79 3 -9 4 -23 9 -32 10 -26 4 -31 16 -7 16 12 0
19 4 16 10 -3 6 -2 10 4 10 6 0 8 7 4 16 -5 14 -7 14 -17 -4 -10 -18 -12 -19
-26 -4 -13 14 -12 15 3 9 14 -5 17 -1 17 23 0 20 -5 30 -15 30 -13 0 -12 4 4
22 11 11 18 26 14 31 -3 6 -1 7 5 3 7 -4 12 -3 12 3 0 5 14 12 31 16 21 5 29
11 25 21 -4 11 -2 12 13 4 12 -6 21 -25 25 -47z m2185 -67 c4 -44 6 -88 3 -98
-5 -21 -36 -29 -53 -14 -9 8 -10 8 -4 -3 6 -10 2 -10 -16 2 -14 9 -44 14 -72
13 -29 -1 -53 4 -59 11 -8 10 -6 13 7 13 11 0 15 5 11 15 -4 12 -1 13 12 7 9
-5 23 -7 30 -6 6 1 18 2 25 3 24 3 40 19 31 32 -5 8 -9 19 -10 24 -1 6 -3 15
-4 20 -5 21 0 36 10 30 6 -3 14 5 19 19 6 13 18 29 28 34 26 15 34 -5 42 -102z
m-1223 92 c3 -4 8 -31 10 -60 2 -29 6 -67 9 -85 7 -37 -27 -82 -48 -65 -7 5
-27 13 -46 17 -24 5 -30 10 -20 16 11 7 10 9 -4 9 -10 0 -15 5 -12 10 4 6 10
8 15 5 5 -3 17 6 28 20 20 26 19 63 -2 77 -7 5 -7 8 2 8 7 0 18 13 23 29 9 27
29 35 45 19z m-1811 -8 c4 -6 11 -7 17 -4 7 4 8 2 4 -4 -4 -7 -3 -12 2 -12 5
0 14 -12 21 -27 9 -20 9 -28 0 -33 -6 -5 -8 -13 -4 -20 5 -9 4 -11 -3 -6 -7 4
-12 1 -12 -9 0 -10 5 -14 13 -10 6 4 3 0 -7 -9 -10 -8 -23 -13 -27 -10 -5 3
-18 0 -29 -6 -16 -9 -19 -8 -13 6 5 13 3 15 -8 8 -8 -4 -23 -9 -34 -11 -11 -1
-14 1 -7 3 15 7 16 26 0 42 -6 6 -13 19 -14 29 -3 17 22 73 32 73 3 0 3 -4 -1
-10 -3 -5 7 -3 22 5 33 18 40 18 48 5z m4633 -1 c35 -12 58 -58 39 -79 -9 -10
-9 -11 0 -6 8 4 11 -1 10 -14 -1 -13 -6 -19 -15 -15 -7 2 -10 0 -7 -5 3 -6 0
-10 -7 -10 -8 0 -9 -3 -3 -8 18 -13 15 -31 -8 -38 -41 -14 -70 -9 -85 15 -8
12 -11 21 -6 19 5 -2 10 -1 11 2 5 10 -10 50 -17 50 -16 0 10 65 33 82 27 21
18 20 55 7z m432 -12 c17 -13 21 -102 5 -126 -6 -11 -4 -13 8 -8 8 3 27 0 41
-6 28 -13 36 -30 9 -20 -10 4 -14 2 -10 -4 5 -8 -32 -11 -40 -3 -6 5 -39 2
-56 -5 -10 -4 -24 -2 -34 6 -12 10 -15 10 -9 2 5 -9 0 -13 -13 -13 -12 0 -21
4 -21 8 0 4 -9 8 -20 9 -13 1 -18 -2 -14 -9 5 -7 2 -8 -7 -2 -8 5 -25 9 -38 9
-13 0 -26 6 -29 14 -3 9 0 12 10 8 9 -3 27 1 42 8 16 9 26 10 26 3 0 -7 5 -7
14 1 11 9 15 9 19 -1 3 -7 6 -4 6 7 1 17 3 17 11 5 6 -9 10 -10 10 -3 0 6 -4
15 -10 18 -5 3 -10 15 -10 26 0 11 -5 17 -10 14 -6 -4 -3 9 6 29 10 19 24 37
33 39 31 9 66 6 81 -6z m-4637 -23 c15 -20 15 -24 -1 -55 -15 -29 -22 -34 -54
-35 -20 -1 -43 3 -50 8 -9 7 -7 8 7 4 18 -5 18 -4 4 6 -20 16 -15 68 8 86 24
18 67 11 86 -14z m189 10 c28 -14 30 -25 10 -60 -6 -12 -8 -25 -4 -29 4 -3 2
-6 -3 -5 -5 1 -12 2 -15 1 -3 -1 -22 -3 -42 -5 -35 -3 -37 -1 -32 21 6 21 -9
33 -19 16 -2 -5 -2 -1 1 7 2 8 5 22 6 29 2 8 8 17 14 19 7 2 10 7 7 12 -8 13
48 9 77 -6z m2794 5 c4 -8 9 -7 15 2 7 12 9 12 9 0 0 -8 8 -20 18 -28 9 -8 11
-11 3 -7 -11 5 -13 1 -9 -19 3 -15 2 -25 -1 -22 -4 2 -13 0 -20 -4 -19 -12 7
-50 29 -44 10 3 21 -1 25 -8 6 -8 4 -10 -6 -4 -11 6 -12 5 -1 -6 6 -7 12 -16
12 -19 0 -11 -52 -3 -59 9 -6 9 -11 8 -21 -4 -11 -13 -15 -13 -22 -3 -6 10
-10 10 -18 -2 -7 -11 -10 -11 -10 -2 0 7 -4 10 -10 7 -5 -3 -10 -1 -10 6 0 8
-4 8 -15 -1 -8 -7 -15 -9 -15 -5 0 4 -8 1 -17 -6 -11 -10 -14 -10 -9 -1 4 7 1
12 -9 12 -9 0 -14 -4 -11 -8 3 -5 -1 -9 -9 -9 -8 0 -13 3 -10 5 3 3 -3 11 -13
19 -16 13 -15 14 6 10 20 -5 22 -3 10 11 -8 12 -5 11 10 -3 20 -16 25 -17 32
-5 7 10 10 11 10 3 0 -7 5 -13 11 -13 5 0 7 5 3 11 -5 8 -1 8 13 0 11 -6 23
-7 27 -4 3 3 6 1 6 -6 0 -7 5 -9 13 -4 6 4 19 6 29 5 26 -5 32 18 9 39 -13 12
-21 15 -21 7 0 -7 -6 -4 -14 7 -17 26 -17 56 2 78 17 20 28 22 38 6z m224 -38
c0 -14 2 -14 11 -1 8 12 9 10 4 -7 -4 -14 -2 -23 5 -23 6 0 8 -5 4 -11 -4 -8
-9 -7 -15 2 -8 11 -11 11 -19 -3 -6 -9 -17 -15 -25 -12 -8 4 -13 10 -10 14 3
5 1 11 -5 15 -5 3 -10 1 -10 -5 0 -8 -6 -8 -20 0 -21 11 -19 30 3 30 7 0 6 -4
-3 -10 -8 -5 -10 -10 -4 -10 19 0 24 12 12 34 -11 20 -10 20 7 6 17 -14 18
-13 12 3 -4 10 -3 16 2 12 5 -3 13 0 17 6 8 14 34 -16 34 -40z m-2035 -18 c2
-26 1 -42 -2 -35 -3 6 -9 10 -13 7 -5 -3 -12 0 -16 6 -4 7 -3 9 3 6 6 -4 13 0
16 7 3 8 2 16 -3 18 -5 2 -7 13 -3 26 8 33 15 20 18 -35z m2234 40 c10 9 11 8
5 -8 -4 -11 -12 -24 -19 -30 -7 -5 -13 -14 -14 -20 -2 -5 -8 -9 -13 -7 -6 1
-17 -3 -26 -10 -14 -12 -14 -10 -3 10 11 20 15 21 28 10 13 -11 13 -8 -1 14
-17 26 -45 31 -30 6 4 -7 2 -8 -5 -4 -15 10 4 36 25 36 8 0 14 6 14 13 1 7 6
5 14 -5 10 -14 15 -15 25 -5z m202 -2 c22 -17 22 -19 6 -35 -18 -19 -22 -32
-9 -39 4 -2 1 -2 -5 -1 -7 2 -13 -5 -13 -16 0 -23 12 -25 42 -9 15 8 18 8 14
0 -5 -7 -1 -9 8 -5 19 7 20 -5 3 -26 -12 -15 -70 -22 -61 -8 3 4 -3 9 -13 9
-53 4 -86 0 -93 -11 -6 -9 -13 -7 -28 8 -18 18 -22 19 -33 6 -9 -11 -8 -14 6
-14 10 0 15 -3 12 -7 -4 -3 -18 -1 -31 7 -14 7 -33 10 -44 8 -12 -4 -19 0 -19
9 0 12 9 14 38 10 l38 -5 -20 21 c-21 23 -11 44 16 33 14 -5 15 -9 5 -21 -12
-14 -7 -20 14 -16 5 1 13 -4 17 -11 7 -10 9 -10 9 0 0 6 7 12 16 12 9 0 13 -5
9 -12 -4 -7 1 -4 9 6 12 15 16 16 16 5 0 -11 2 -11 9 -1 6 11 10 10 15 -3 5
-14 9 -15 21 -5 20 16 19 27 -4 55 -14 19 -21 21 -32 12 -9 -8 -9 -6 1 8 8 11
20 23 25 27 6 5 4 8 -5 8 -13 0 -13 1 0 10 22 14 35 12 61 -9z m-2609 -28 c22
-20 32 -68 18 -90 -10 -16 -10 -16 -5 4 7 27 -4 75 -16 67 -5 -3 -9 3 -10 13
0 12 -6 7 -16 -14 -9 -18 -20 -33 -25 -33 -5 0 -4 9 2 20 12 23 3 51 -10 30
-5 -8 -9 -5 -12 8 -4 16 -2 19 10 15 11 -5 13 -3 7 6 -6 10 -3 11 16 1 13 -7
32 -19 41 -27z m797 -9 c-5 -7 -18 -11 -27 -9 -9 1 -23 -3 -31 -9 -12 -9 -12
-8 0 13 26 45 31 49 51 32 12 -10 14 -18 7 -27z m182 37 c6 -29 5 -82 -1 -86
-5 -3 -7 6 -6 20 2 13 0 23 -3 20 -14 -8 -30 12 -25 31 5 18 32 30 35 15z
m218 -4 c9 -7 16 -22 17 -35 0 -14 -3 -19 -9 -13 -6 6 -18 5 -33 -2 -19 -8
-27 -7 -37 3 -6 7 -7 10 -1 7 6 -4 9 4 6 21 -3 23 0 28 19 29 12 1 29 -3 38
-10z m187 -9 c6 -21 20 -24 27 -5 3 6 5 3 4 -9 -1 -21 -16 -24 -49 -10 -19 9
-20 43 -1 43 7 0 15 -9 19 -19z m-1606 -3 c-5 -7 -8 -14 -5 -16 2 -3 -4 -5
-15 -5 -14 0 -16 4 -10 16 5 9 16 17 24 17 11 0 13 -4 6 -12z m2020 -6 c0 -11
5 -17 10 -14 6 3 10 1 10 -4 0 -17 -27 -13 -34 5 -9 23 -7 34 4 34 6 0 10 -9
10 -21z m-560 -19 c0 -5 -2 -10 -4 -10 -3 0 -8 5 -11 10 -3 6 -1 10 4 10 6 0
11 -4 11 -10z m-1454 -28 c-18 -16 -18 -16 -6 6 6 13 14 21 18 18 3 -4 -2 -14
-12 -24z m529 6 c-1 -12 -7 -23 -14 -24 -6 -1 -7 0 -1 3 5 2 8 9 4 14 -3 5 -2
14 1 19 9 15 12 12 10 -12z m1055 12 c0 -5 -5 -10 -11 -10 -5 0 -7 5 -4 10 3
6 8 10 11 10 2 0 4 -4 4 -10z m-646 -16 c3 -8 2 -12 -4 -9 -6 3 -10 10 -10 16
0 14 7 11 14 -7z m473 0 c-3 -3 -12 -4 -19 -1 -8 3 -5 6 6 6 11 1 17 -2 13 -5z
m-161 -16 c4 -7 3 -8 -4 -4 -7 4 -12 2 -12 -5 0 -7 -3 -10 -6 -6 -6 5 3 27 11
27 2 0 7 -5 11 -12z m994 2 c0 -5 -2 -10 -4 -10 -3 0 -8 5 -11 10 -3 6 -1 10
4 10 6 0 11 -4 11 -10z m-3613 -22 c-3 -8 -6 -5 -6 6 -1 11 2 17 5 13 3 -3 4
-12 1 -19z m2678 12 c-3 -5 -12 -10 -18 -10 -7 0 -6 4 3 10 19 12 23 12 15 0z
m85 4 c0 -8 -19 -13 -24 -6 -3 5 1 9 9 9 8 0 15 -2 15 -3z m72 -31 c-24 -18
-36 -16 -18 3 9 8 16 21 16 27 0 7 4 6 9 -2 7 -10 4 -19 -7 -28z m2571 25 c2
-7 -3 -18 -12 -25 -23 -18 -35 -16 -17 3 9 8 14 20 11 25 -4 5 -2 9 4 9 5 0
11 -6 14 -12z m-4816 -20 c0 -13 -1 -17 -4 -10 -3 6 -9 10 -14 6 -5 -3 -9 -1
-9 5 0 5 6 12 13 14 6 3 12 6 12 6 1 1 1 -9 2 -21z m43 12 c0 -5 -2 -10 -4
-10 -3 0 -8 5 -11 10 -3 6 -1 10 4 10 6 0 11 -4 11 -10z m40 -9 c6 -11 6 -22
1 -25 -5 -3 -11 5 -13 19 -6 30 -2 32 12 6z m165 3 c10 3 14 2 9 -5 -3 -6 -15
-8 -26 -6 -14 4 -18 2 -14 -9 3 -8 1 -14 -4 -14 -5 0 -9 11 -8 24 2 19 5 22
15 14 7 -5 20 -8 28 -4z m703 -19 c-1 -2 -16 -5 -33 -7 -23 -2 -30 1 -33 17
-2 15 -1 17 6 6 7 -9 12 -10 16 -2 4 6 13 11 19 11 7 0 6 -4 -3 -10 -13 -8
-12 -10 3 -10 9 0 18 8 18 18 1 15 2 15 6 -1 3 -10 3 -20 1 -22z m19 13 c-3
-8 -6 -5 -6 6 -1 11 2 17 5 13 3 -3 4 -12 1 -19z m133 3 c0 -3 -6 -13 -13 -22
-14 -18 -50 -11 -55 10 -2 11 0 12 11 3 21 -17 51 -4 36 14 -10 12 -9 13 5 8
9 -3 16 -9 16 -13z m730 -13 c0 -5 -4 -6 -10 -3 -5 3 -10 1 -10 -5 0 -6 -10
-8 -26 -4 -21 6 -25 4 -19 -7 6 -11 5 -12 -6 -1 -7 6 -17 12 -22 12 -4 0 -5
-6 -1 -12 6 -9 3 -9 -9 0 -9 8 -21 11 -26 8 -5 -4 -12 -2 -16 4 -5 8 18 15 28
8 2 -2 12 4 22 12 14 11 17 11 11 1 -7 -10 -4 -12 12 -7 11 4 23 2 27 -4 7
-12 25 -4 25 11 0 6 -5 7 -12 3 -7 -4 -8 -3 -4 5 6 9 11 9 22 0 8 -6 14 -16
14 -21z m467 25 c-4 -3 -3 -11 3 -17 5 -7 5 -17 0 -26 -7 -11 -10 -11 -11 -2
-1 6 -2 18 -3 25 -3 14 3 27 11 27 4 0 3 -3 0 -7z m660 1 c-3 -3 -12 -4 -19
-1 -8 3 -5 6 6 6 11 1 17 -2 13 -5z m211 -5 c28 15 35 14 29 -3 -3 -8 2 -16
14 -19 21 -6 26 8 7 17 -7 3 -4 4 7 1 76 -16 98 -17 90 -5 -5 9 -4 11 3 6 17
-10 15 -19 -9 -34 -12 -8 -18 -9 -15 -4 3 5 -5 12 -19 14 -14 3 -25 1 -25 -5
0 -5 -12 -6 -27 -3 -39 10 -87 7 -91 -4 -2 -6 -8 -10 -13 -10 -6 0 -7 5 -3 12
5 8 2 9 -9 5 -12 -5 -17 -1 -17 13 0 11 5 20 11 20 5 0 8 -4 5 -9 -3 -5 1 -11
9 -15 8 -3 17 -1 20 4 4 6 1 10 -5 10 -6 0 -8 5 -4 11 5 8 9 8 14 -1 6 -9 13
-9 28 -1z m1222 -21 c0 -5 -5 -6 -12 -2 -7 5 -9 2 -5 -9 4 -11 0 -15 -13 -14
-14 1 -16 5 -9 13 8 9 5 11 -10 7 -12 -3 -18 -10 -14 -17 3 -6 0 -6 -8 2 -7 6
-17 12 -22 12 -4 0 -5 -6 -1 -12 5 -9 2 -9 -9 1 -13 10 -20 11 -31 2 -12 -10
-14 -9 -12 6 2 10 12 19 22 19 10 1 24 3 29 4 6 1 20 1 32 1 11 -1 24 3 28 9
8 12 35 -5 35 -22z m378 19 c13 4 12 2 -3 -10 -17 -14 -18 -18 -5 -27 12 -8
11 -9 -7 -7 -32 4 -36 12 -21 36 7 12 14 17 16 12 2 -6 11 -7 20 -4z m106 4
c18 -8 23 -15 19 -30 -3 -12 -9 -21 -15 -21 -5 0 -4 8 1 19 9 15 7 20 -9 24
-11 3 -23 1 -26 -4 -3 -5 -1 -8 4 -7 10 3 12 -1 12 -24 0 -16 -29 23 -30 40 0
14 10 15 44 3z m461 -11 c-3 -5 5 -16 17 -25 l23 -17 -25 7 c-14 4 -32 11 -40
16 -13 7 -13 9 2 14 10 4 15 12 11 18 -3 6 -1 7 6 3 6 -4 9 -11 6 -16z m41 8
c5 -7 3 -8 -6 -3 -9 5 -11 4 -6 -4 6 -9 11 -9 24 1 12 10 14 10 8 1 -4 -7 -2
-13 3 -13 6 0 11 8 12 18 0 9 3 12 5 5 3 -7 11 -10 19 -7 7 3 16 0 20 -5 3 -6
10 -9 14 -7 4 3 12 -4 19 -15 10 -15 10 -19 -2 -19 -8 0 -19 7 -24 16 -8 14
-10 14 -21 0 -17 -20 -45 -20 -77 0 -19 13 -22 20 -13 30 14 17 16 17 25 2z
m-5743 -25 c-15 -22 -31 -34 -18 -13 3 6 1 10 -6 10 -8 0 -9 4 0 13 6 8 17 14
25 14 12 0 12 -4 -1 -24z m107 0 c0 -19 -13 -9 -16 12 -1 8 2 13 7 9 5 -3 9
-12 9 -21z m150 0 c0 -13 -3 -13 -15 -3 -8 7 -12 16 -9 21 8 13 24 1 24 -18z
m750 23 c0 -11 -19 -15 -25 -6 -3 5 1 10 9 10 9 0 16 -2 16 -4z m124 -5 c3 -4
-3 -16 -13 -25 -14 -13 -18 -14 -18 -2 0 8 5 14 11 13 6 -1 10 4 9 11 -3 14 3
16 11 3z m855 2 c-1 -5 -1 -15 1 -23 1 -11 4 -9 11 5 l9 20 -3 -20 c-2 -12 -9
-18 -18 -16 -8 2 -22 4 -32 5 -15 0 -15 3 5 18 26 20 28 21 27 11z m351 -4 c0
-8 14 -7 48 5 14 5 29 3 37 -4 11 -9 19 -10 28 -1 10 8 21 7 40 -2 29 -13 38
-30 10 -20 -10 4 -14 2 -10 -4 13 -21 -61 0 -75 21 -5 7 -8 7 -8 -2 0 -7 -6
-12 -12 -11 -29 3 -49 -2 -43 -11 3 -5 -3 -10 -14 -10 -12 0 -21 6 -21 14 0 8
-5 18 -12 22 -8 5 -9 2 -4 -11 6 -18 6 -18 -15 1 l-22 19 13 -25 c12 -22 11
-23 -2 -13 -8 7 -24 11 -35 8 -12 -2 -24 3 -27 10 -3 9 0 12 9 9 8 -3 22 -1
31 4 19 11 84 11 84 1z m234 -4 c-16 -13 -17 -16 -4 -24 12 -8 10 -10 -7 -8
-12 0 -19 5 -17 9 3 4 0 8 -7 8 -21 0 8 26 32 27 20 2 21 1 3 -12z m-2614 -20
c0 -2 -7 -1 -17 2 -9 4 -14 2 -10 -3 3 -6 -3 -10 -13 -11 -11 -1 -22 2 -25 7
-2 4 3 7 13 6 9 0 16 5 14 12 -2 10 2 10 18 2 11 -6 20 -13 20 -15z m1104 10
c-4 -8 -16 -14 -28 -14 -17 1 -17 2 -3 6 9 2 15 9 12 14 -4 5 1 9 9 9 10 0 13
-6 10 -15z m166 0 c-7 -8 -17 -12 -23 -8 -6 4 -3 9 9 14 27 11 28 11 14 -6z
m297 -8 c3 -6 1 -7 -6 -3 -6 4 -18 2 -26 -4 -11 -9 -14 -8 -12 8 1 20 31 20
44 -1z m1923 8 c0 -8 -4 -15 -8 -15 -5 0 -9 7 -9 15 0 8 4 15 9 15 4 0 8 -7 8
-15z m1851 -6 c8 -17 8 -20 -2 -17 -7 2 -13 12 -15 21 -3 23 3 21 17 -4z
m-5121 1 c0 -5 -5 -10 -11 -10 -5 0 -7 5 -4 10 3 6 8 10 11 10 2 0 4 -4 4 -10z
m55 0 c3 -5 -1 -10 -9 -10 -9 0 -16 5 -16 10 0 6 4 10 9 10 6 0 13 -4 16 -10z
m294 -13 c0 -9 -2 -8 -6 1 -2 6 -10 9 -15 6 -7 -4 -8 -2 -4 5 9 13 26 5 25
-12z m2216 -5 c-8 -8 -25 10 -19 20 4 6 9 5 15 -3 4 -7 6 -15 4 -17z m1415 18
c0 -5 -5 -10 -11 -10 -5 0 -7 5 -4 10 3 6 8 10 11 10 2 0 4 -4 4 -10z m-2393
-159 c7 -9 13 -41 14 -71 1 -30 3 -71 4 -90 14 -212 18 -321 19 -529 1 -230 0
-246 -21 -288 -21 -44 -21 -46 -3 -86 16 -39 18 -79 16 -499 -2 -430 -4 -459
-22 -493 l-19 -36 24 -42 c19 -33 24 -55 23 -105 -1 -35 -4 -72 -7 -82 -21
-66 -21 -307 0 -385 17 -64 18 -172 2 -218 -6 -19 -5 -54 3 -106 10 -67 10
-82 -5 -117 -19 -45 -21 -100 -6 -164 15 -64 13 -192 -2 -230 -10 -22 -11 -45
-6 -73 13 -65 10 -190 -4 -233 -14 -43 -14 -40 -3 -104 13 -67 9 -160 -8 -200
-8 -19 -17 -48 -21 -63 l-6 -29 -22 24 c-25 26 -61 46 -94 53 -63 11 -84 39
-84 111 -1 97 0 104 24 127 22 23 30 48 14 46 -9 0 -57 52 -57 63 0 3 -16 -9
-35 -28 -21 -20 -45 -34 -60 -34 -14 0 -25 -4 -25 -10 0 -5 3 -9 8 -8 16 3 61
-22 76 -44 18 -25 22 -121 7 -161 -14 -37 -57 -59 -120 -61 -64 -3 -94 12
-118 58 -18 35 -19 137 -1 165 17 28 62 51 89 45 16 -3 15 -1 -6 7 -80 28
-101 41 -102 61 -1 12 -7 25 -12 30 -6 4 -9 5 -6 2 2 -4 -3 -13 -11 -21 -8 -8
-12 -18 -10 -22 12 -18 -62 -38 -133 -37 -69 1 -75 3 -95 29 -29 39 -36 169
-11 220 19 42 49 54 120 50 85 -4 111 -15 119 -49 6 -22 30 -32 26 -10 -1 4 7
14 17 22 10 7 14 14 8 14 -5 0 -4 4 3 9 11 6 8 14 -11 34 -14 13 -27 23 -29
22 -4 -4 -10 91 -11 167 -1 49 -4 59 -21 65 -32 11 -46 12 -50 5 -2 -4 -25 -7
-50 -6 -33 0 -45 -3 -42 -12 3 -7 -2 -10 -15 -7 -10 3 -19 11 -19 18 0 7 -7
15 -15 19 -10 3 -15 19 -15 45 0 22 -9 58 -21 80 -21 40 -25 111 -8 157 4 11
3 43 -2 70 -16 81 -17 176 -2 226 9 32 10 54 3 72 -12 33 -14 119 -5 226 3 47
7 118 8 158 2 52 6 75 17 82 8 5 67 10 131 10 97 0 120 3 140 18 73 56 161 62
248 18 28 -15 51 -22 51 -17 0 5 14 14 30 21 17 7 30 17 30 22 0 5 4 7 9 3 5
-3 13 -1 16 5 4 6 3 9 -2 8 -4 -1 -25 4 -46 11 -39 13 -113 9 -160 -8 -15 -6
-46 -5 -87 4 -34 7 -128 14 -209 14 -191 2 -182 -7 -181 186 1 80 2 151 2 158
0 6 -3 148 -6 315 l-7 302 32 40 c31 38 31 40 15 65 -9 14 -21 25 -25 25 -25
0 -30 75 -26 335 3 149 7 284 10 300 5 32 17 192 19 260 1 23 9 48 19 60 17
18 32 19 320 20 166 0 308 4 316 9 9 6 12 5 8 -1 -8 -12 49 -9 83 5 29 12 60
6 77 -17z m1210 -2 c7 -13 15 -87 18 -164 4 -77 9 -151 12 -165 3 -14 6 -153
8 -310 3 -264 2 -288 -16 -323 -23 -45 -24 -66 -5 -102 14 -27 20 -108 19
-245 0 -36 0 -99 0 -140 1 -143 0 -215 -3 -270 -2 -30 -2 -107 -1 -170 2 -89
-1 -124 -14 -157 -17 -42 -17 -43 11 -92 25 -46 26 -56 19 -113 -5 -35 -8 -83
-8 -108 0 -25 0 -88 0 -140 1 -94 1 -116 5 -315 1 -83 -2 -109 -20 -153 -14
-32 -22 -74 -22 -108 0 -47 -3 -56 -23 -65 -16 -7 -31 -7 -52 2 -17 7 -51 13
-77 15 -38 1 -53 -3 -75 -22 -15 -13 -31 -24 -34 -24 -16 0 -18 -34 -3 -62
l15 -30 82 7 c45 3 90 9 100 12 28 7 73 -15 88 -44 10 -18 14 -60 12 -142 -1
-64 -1 -180 -1 -257 0 -112 -4 -149 -17 -174 -13 -25 -14 -38 -6 -62 18 -51
13 -171 -10 -251 -32 -110 -32 -111 -10 -148 26 -43 27 -85 0 -128 -18 -30
-23 -33 -52 -26 -18 4 -49 11 -70 15 -44 9 -77 43 -77 79 0 31 7 42 39 63 22
15 25 15 44 -3 27 -25 48 -21 64 11 10 20 9 26 -7 37 -11 8 -31 11 -45 9 -24
-4 -25 -3 -13 11 7 9 8 14 2 10 -7 -4 -17 0 -24 8 -7 8 -9 15 -6 15 4 0 -4 10
-17 23 -12 12 -33 37 -46 55 l-23 33 -39 -36 c-38 -34 -41 -35 -124 -35 l-84
0 -26 35 c-23 30 -27 45 -28 113 -2 59 2 84 15 104 16 25 16 27 -2 51 -11 14
-20 37 -20 51 0 14 -8 30 -17 35 -10 6 -12 11 -5 11 6 0 12 5 12 11 0 5 -4 7
-10 4 -6 -3 -10 4 -10 17 0 19 2 20 11 8 9 -13 10 -12 5 3 -3 9 -9 25 -12 35
-4 13 -4 14 4 3 7 -9 10 -2 10 28 0 23 3 50 7 60 6 19 1 19 -107 14 -116 -5
-196 10 -191 36 2 6 -3 11 -10 11 -7 0 -13 8 -14 18 -1 9 -2 32 -4 50 -1 17
-7 32 -13 32 -7 0 -7 3 -1 8 16 12 14 112 -2 112 -8 0 -11 4 -8 10 3 6 -1 7
-10 4 -13 -5 -13 -9 -3 -23 12 -14 11 -15 -5 -2 -12 9 -14 17 -7 26 7 8 2 10
-20 7 -16 -2 -27 -8 -24 -13 3 -5 1 -9 -5 -9 -5 0 -12 4 -16 10 -3 5 -12 7
-20 3 -8 -3 -15 0 -15 6 0 6 -6 11 -13 11 -30 0 -48 84 -24 109 6 8 7 11 1 8
-15 -9 -54 64 -54 102 0 17 7 49 16 72 16 37 16 44 1 74 -21 45 -22 176 0 232
14 39 14 46 -1 83 -24 61 -21 161 8 234 17 43 25 81 25 131 0 88 8 95 114 95
70 0 84 3 113 25 18 14 37 25 43 25 6 0 11 5 11 10 0 6 8 10 18 11 9 0 -3 7
-27 14 -26 8 -89 14 -148 14 -57 0 -112 5 -122 10 -10 6 -24 25 -30 42 -16 46
-14 169 4 219 13 38 13 48 -1 97 -11 38 -14 73 -9 116 3 34 9 168 13 297 4
129 10 240 14 246 5 7 1 29 -8 49 -13 31 -15 81 -15 274 1 255 4 343 15 436 4
33 9 101 11 152 3 97 14 123 52 123 11 0 24 5 31 12 8 8 12 8 12 1 0 -13 259
-12 279 1 9 6 12 5 8 0 -6 -11 232 -12 250 -1 6 4 14 4 16 0 6 -10 267 -6 327
5 67 11 84 8 97 -19z m6272 -3271 c8 -18 25 -50 39 -72 34 -55 29 -125 -15
-185 -18 -24 -33 -47 -33 -50 0 -4 16 -31 35 -61 48 -74 47 -110 -5 -187 -37
-54 -40 -63 -30 -89 6 -16 20 -38 30 -49 46 -49 41 -104 -13 -154 -21 -18 -25
-30 -21 -57 3 -25 0 -36 -11 -41 -21 -8 -23 -4 -29 47 -3 25 -11 63 -19 84
-15 40 -13 91 5 136 12 30 16 90 6 90 -5 0 -8 6 -8 14 0 7 -7 19 -15 26 -8 6
-14 15 -13 18 1 4 -2 24 -7 45 -5 26 -3 53 5 80 8 23 15 49 17 57 7 24 4 62
-6 74 -11 14 -36 117 -33 134 2 7 -1 12 -5 11 -21 -3 -21 3 -3 21 22 22 26 40
10 40 -5 0 -10 8 -10 18 0 13 2 14 9 3 6 -10 11 -5 16 19 5 23 16 36 38 46 46
19 50 18 66 -18z m-604 12 c3 -5 1 -10 -4 -10 -6 0 -11 5 -11 10 0 6 2 10 4
10 3 0 8 -4 11 -10z m33 -7 c-3 -14 14 -43 22 -38 4 3 10 -1 13 -9 4 -9 0 -12
-13 -9 -10 3 -21 12 -24 21 -3 10 -9 23 -12 30 -3 6 -1 12 5 12 6 0 10 -3 9
-7z m-497 -15 c44 -15 46 -18 44 -83 0 -29 3 -51 8 -48 4 3 6 11 4 17 -3 7 1
13 9 13 12 0 12 -4 -1 -21 -29 -41 -36 -56 -25 -56 5 0 10 -7 10 -15 0 -8 -4
-15 -10 -15 -5 0 -10 -9 -10 -19 0 -11 -11 -32 -25 -47 -13 -14 -23 -29 -21
-33 1 -3 10 -23 20 -43 9 -21 20 -38 24 -38 8 0 35 59 34 71 -1 4 4 6 11 6 57
-2 88 4 81 16 -6 9 -4 9 8 -1 10 -8 33 -12 57 -9 23 2 41 0 41 -5 0 -5 5 -6
12 -2 6 4 8 3 5 -3 -7 -12 28 -44 39 -35 4 4 4 -1 1 -10 -3 -10 -2 -20 3 -23
5 -3 7 -12 3 -20 -3 -8 0 -15 6 -15 5 0 16 18 22 40 7 22 18 40 25 40 8 0 19
9 26 19 9 15 15 17 25 9 7 -6 13 -7 13 -2 0 5 16 9 35 10 18 0 32 -3 29 -7 -2
-4 4 -5 14 -3 25 7 84 -36 91 -66 3 -14 5 -53 6 -87 0 -51 -4 -66 -24 -87 -13
-14 -27 -23 -32 -21 -4 3 -10 1 -14 -5 -3 -5 -36 -8 -77 -5 -60 3 -75 8 -95
29 -13 14 -23 34 -23 45 0 31 -26 15 -37 -22 -11 -40 -42 -55 -118 -58 -96 -3
-111 0 -139 26 -15 14 -30 25 -33 25 -3 0 -14 -11 -25 -25 -26 -33 -58 -32
-92 4 -28 30 -29 30 -13 70 15 37 15 43 0 85 l-17 45 27 25 c33 31 33 37 2 66
-29 28 -31 40 -9 83 16 29 15 35 -1 84 -18 51 -18 53 1 74 17 19 47 36 65 38
3 1 21 -4 40 -11z m623 -19 c-3 -5 -10 -7 -15 -3 -5 3 -7 10 -3 15 3 5 10 7
15 3 5 -3 7 -10 3 -15z m226 11 c0 -5 -7 -7 -15 -4 -8 4 -15 8 -15 10 0 2 7 4
15 4 8 0 15 -4 15 -10z m575 0 c8 13 36 0 28 -14 -3 -6 4 -2 17 9 13 11 20 15
17 8 -4 -6 -1 -18 7 -26 8 -8 13 -17 10 -20 -9 -9 8 -57 18 -51 5 3 4 -4 -4
-15 -11 -18 -11 -23 1 -30 11 -7 11 -9 0 -14 -12 -5 -12 -7 -1 -15 11 -7 10
-10 -3 -16 -10 -3 -15 -12 -11 -21 3 -9 0 -15 -9 -15 -8 0 -15 -4 -15 -10 0
-25 -137 -33 -165 -10 -7 5 -15 7 -18 3 -4 -3 -7 1 -7 11 0 9 -4 14 -10 11 -6
-3 -11 5 -11 19 -2 34 -3 39 -12 53 -4 6 -3 14 2 17 5 3 8 24 7 45 0 22 4 39
9 38 6 -1 9 4 7 12 -2 8 3 11 13 8 8 -4 15 -3 15 1 0 13 64 28 87 20 12 -4 25
-3 28 2z m151 -14 c-1 -16 -5 -22 -16 -18 -13 5 -13 4 0 -14 14 -17 14 -18 -2
-6 -17 13 -17 15 0 38 21 29 20 29 18 0z m60 8 c-6 -15 -4 -15 11 -3 11 9 14
10 9 2 -4 -8 -1 -13 9 -13 9 0 14 4 11 9 -3 4 7 6 22 4 15 -2 37 -5 49 -6 12
0 19 -5 16 -11 -4 -5 1 -7 10 -3 10 4 16 2 14 -6 -1 -7 3 -11 8 -10 6 1 11
-11 12 -25 1 -15 3 -44 5 -64 3 -22 1 -35 -5 -31 -6 4 -8 -2 -5 -14 3 -11 0
-26 -6 -34 -13 -17 -126 -51 -126 -38 0 5 -11 9 -24 9 -36 0 -70 53 -68 104 4
72 7 81 32 113 28 36 35 40 26 17z m194 12 c0 -2 -8 -10 -17 -17 -16 -13 -17
-12 -4 4 13 16 21 21 21 13z m121 -19 c-10 -9 -11 -8 -5 6 3 10 9 15 12 12 3
-3 0 -11 -7 -18z m-1631 2 c0 -6 -7 -17 -15 -25 -8 -9 -15 -11 -15 -5 0 5 5
13 10 16 6 4 8 11 5 16 -4 5 -1 9 4 9 6 0 11 -5 11 -11z m-40 -15 c0 -8 -5
-12 -10 -9 -6 4 -8 11 -5 16 9 14 15 11 15 -7z m1795 8 c-13 -9 -12 -18 5 -57
16 -37 16 -105 -1 -115 -6 -5 -8 -13 -4 -20 5 -8 4 -11 -3 -6 -6 3 -13 2 -16
-2 -10 -16 -102 -14 -116 3 -7 8 -16 13 -20 10 -5 -3 -12 0 -16 6 -5 8 -3 9 6
4 10 -6 11 -4 5 11 -18 43 -14 92 10 118 12 13 21 26 20 28 -2 2 23 3 55 3 40
0 56 3 50 10 -6 7 -1 11 13 12 12 1 17 -1 12 -5z m-1310 -12 c-3 -5 -12 -10
-18 -10 -7 0 -6 4 3 10 19 12 23 12 15 0z m-7875 -24 c-5 -13 -6 -27 -3 -30 4
-3 4 -6 1 -6 -3 0 -12 8 -19 17 -8 9 -9 14 -3 10 7 -4 14 2 17 13 3 11 8 20
11 20 3 0 1 -11 -4 -24z m60 20 c0 -2 -7 -7 -16 -10 -8 -3 -12 -2 -9 4 6 10
25 14 25 6z m7273 -10 c4 -10 1 -13 -8 -9 -8 3 -12 9 -9 14 7 12 11 11 17 -5z
m347 -10 c-5 -13 -6 -27 -3 -30 4 -3 4 -6 1 -6 -3 0 -12 8 -19 17 -8 9 -9 14
-3 10 7 -4 14 2 17 13 3 11 8 20 11 20 3 0 1 -11 -4 -24z m60 20 c0 -2 -7 -7
-16 -10 -8 -3 -12 -2 -9 4 6 10 25 14 25 6z m1262 -35 c-9 -10 -20 -16 -24
-14 -4 2 0 12 10 22 9 10 20 16 24 14 4 -2 0 -12 -10 -22z m-8933 -10 c-15 -5
-22 6 -14 19 6 9 10 9 16 -1 5 -8 4 -15 -2 -18z m7435 21 c3 -5 -1 -9 -9 -9
-8 0 -12 4 -9 9 3 4 7 8 9 8 2 0 6 -4 9 -8z m245 -21 c-15 -5 -22 6 -14 19 6
9 10 9 16 -1 5 -8 4 -15 -2 -18z m118 12 c0 -9 -4 -10 -14 -2 -7 6 -13 12 -13
14 0 1 6 2 13 2 8 0 14 -6 14 -14z m-577 -3 c0 -5 -5 -10 -11 -10 -5 0 -7 5
-4 10 3 6 8 10 11 10 2 0 4 -4 4 -10z m113 -7 c-3 -7 -9 -10 -14 -7 -14 8 -11
21 5 21 8 0 12 -6 9 -14z m647 8 c0 -5 -7 -12 -16 -15 -14 -5 -15 -4 -4 9 14
17 20 19 20 6z m-575 -11 c3 -6 -1 -7 -9 -4 -18 7 -21 14 -7 14 6 0 13 -4 16
-10z m515 2 c0 -4 -9 -8 -19 -8 -11 0 -17 4 -15 8 3 4 12 8 20 8 8 0 14 -4 14
-8z m-8012 -23 c1 -9 -4 -16 -12 -16 -13 0 -13 3 -3 15 10 13 7 14 -23 9 -25
-5 -31 -4 -20 3 21 14 54 8 58 -11z m7562 13 c0 -5 -7 -9 -15 -9 -8 0 -12 4
-9 9 3 4 9 8 15 8 5 0 9 -4 9 -8z m118 -9 c2 -7 -1 -13 -8 -13 -6 0 -8 5 -4
12 5 8 -2 9 -27 5 -24 -5 -30 -4 -19 3 19 13 52 9 58 -7z m-6698 1 c0 -8 -19
-13 -24 -6 -3 5 1 9 9 9 8 0 15 -2 15 -3z m6327 0 c-3 -3 -12 -4 -19 -1 -8 3
-5 6 6 6 11 1 17 -2 13 -5z m1670 -19 c-15 -16 -19 -13 -11 9 3 9 10 13 15 10
5 -3 3 -11 -4 -19z m-8919 -8 c13 4 14 3 6 -6 -13 -14 -47 -3 -37 12 5 8 8 8
10 0 3 -7 12 -9 21 -6z m7432 9 c0 -2 -9 -6 -20 -9 -11 -3 -18 -1 -14 4 5 9
34 13 34 5z m-7350 -26 c0 -5 -9 -6 -20 -3 -11 3 -20 9 -20 13 0 5 9 6 20 3
11 -3 20 -9 20 -13z m835 -9 c-3 -2 -11 1 -18 7 -8 7 -18 8 -22 4 -5 -4 -5 -1
-1 5 5 10 11 10 26 1 11 -7 17 -14 15 -17z m28 -135 c2 3 16 0 30 -7 28 -13
51 -52 51 -89 1 -14 4 -30 8 -35 4 -6 3 -17 -1 -24 -4 -6 -6 -29 -4 -50 3 -33
-1 -44 -32 -76 -19 -21 -35 -40 -35 -42 0 -2 9 -16 20 -31 19 -26 24 -61 21
-144 -1 -28 -9 -45 -32 -68 -18 -16 -35 -30 -38 -31 -82 -12 -113 -2 -142 43
-28 46 -24 159 8 204 l21 30 -29 43 c-26 39 -29 53 -29 118 0 74 13 117 44
143 23 18 76 28 108 19 14 -4 29 -5 31 -3z m6947 -29 c0 -5 9 -5 20 -2 11 4
20 2 20 -4 0 -6 3 -10 8 -10 30 5 38 -3 39 -38 0 -21 3 -53 6 -72 8 -47 -24
-108 -61 -118 -42 -12 -145 -8 -150 5 -2 7 -10 12 -18 12 -9 0 -13 4 -9 9 3 5
1 12 -5 16 -6 4 -7 11 -4 17 4 6 1 14 -6 18 -9 6 -10 24 -4 71 9 61 11 65 48
84 38 20 116 28 116 12z m648 -38 c12 -9 22 -27 22 -39 0 -12 5 -18 10 -15 6
4 10 -10 10 -34 0 -23 -4 -41 -10 -41 -5 0 -10 -7 -10 -15 0 -8 -14 -24 -31
-34 -30 -18 -41 -19 -126 -9 -61 7 -65 162 -6 197 28 17 117 10 141 -10z m260
0 c17 -6 37 -20 45 -32 20 -31 29 -75 17 -82 -6 -4 -8 -11 -5 -16 4 -5 -1 -12
-9 -15 -9 -3 -14 -10 -11 -14 6 -10 -21 -21 -71 -26 -32 -4 -45 0 -65 18 -13
13 -25 32 -26 43 -2 32 -7 50 -16 56 -11 8 44 66 68 72 33 8 41 7 73 -4z m341
-39 c19 -17 21 -23 11 -35 -9 -11 -9 -15 -1 -15 8 0 6 -8 -4 -23 -8 -13 -13
-26 -10 -29 12 -12 -56 -30 -90 -24 -42 8 -57 33 -53 89 3 37 7 44 38 58 38
18 68 12 109 -21z m-9083 -254 c19 -22 24 -39 24 -86 0 -106 -32 -144 -122
-143 -95 2 -123 38 -116 149 4 58 8 70 33 91 25 22 36 25 93 21 55 -4 68 -8
88 -32z m-619 -8 c24 -25 28 -37 27 -84 -3 -91 -45 -131 -134 -121 -34 4 -51
13 -73 37 -25 28 -28 38 -26 88 2 49 7 61 32 85 27 25 37 28 88 26 50 -2 62
-6 86 -31z m7874 20 c27 -6 49 -57 49 -112 0 -42 -5 -58 -25 -80 -13 -14 -34
-27 -47 -27 -13 -1 -34 -2 -48 -3 -64 -4 -110 44 -110 115 0 50 25 93 64 110
18 8 73 6 117 -3z m316 -5 c24 -16 45 -67 38 -98 -2 -11 -4 -30 -4 -42 -1 -29
-48 -72 -88 -79 -42 -8 -100 12 -119 41 -18 27 -27 112 -13 120 5 4 7 10 5 14
-15 23 52 58 113 58 25 0 56 -6 68 -14z m-8805 -47 c22 -26 23 -94 3 -122 -34
-50 -122 -55 -164 -10 -54 58 -23 169 50 174 18 1 35 5 38 7 7 7 53 -24 73
-49z m8225 27 c34 -51 20 -170 -21 -186 -7 -3 -29 3 -47 12 -33 18 -34 20 -34
85 -1 64 0 66 34 91 44 31 47 31 68 -2z m886 -5 c28 -28 34 -95 13 -137 -30
-58 -120 -64 -169 -13 -33 35 -40 74 -21 122 13 31 23 40 52 48 53 14 98 7
125 -20z m888 -29 c32 -32 23 -88 -19 -112 -76 -45 -148 37 -96 111 21 30 85
31 115 1z m277 6 c47 -11 45 -89 -2 -115 -19 -10 -29 -9 -53 4 -45 23 -55 57
-27 92 17 21 44 27 82 19z m-5086 -226 c16 -19 16 -23 2 -44 -12 -18 -21 -22
-50 -18 -19 3 -65 5 -101 6 -66 2 -68 3 -70 29 -3 45 26 56 142 50 46 -2 64
-7 77 -23z m-1855 -13 c3 -3 -6 -8 -20 -12 -15 -3 -25 -11 -24 -18 1 -6 -4
-10 -11 -8 -7 1 -23 3 -36 4 -20 2 -27 20 -17 46 2 5 102 -6 108 -12z m-1552
-45 c0 -6 5 -15 11 -19 25 -16 46 -75 41 -115 -8 -59 -24 -71 -88 -62 -60 8
-109 47 -109 87 1 34 52 85 99 98 23 6 41 13 41 16 0 4 -7 3 -16 0 -9 -3 -12
-2 -9 5 9 13 30 6 30 -10z m-907 -51 c26 -38 23 -77 -8 -120 -23 -33 -63 -30
-102 6 -40 39 -37 75 9 119 46 43 69 42 101 -5z m634 -10 c53 -56 10 -121 -81
-122 -43 0 -75 16 -89 46 -13 29 0 58 44 94 36 30 38 31 73 16 19 -8 43 -23
53 -34z m575 27 c62 -33 82 -96 43 -132 -31 -28 -127 -28 -143 0 -31 53 -25
93 21 131 30 24 35 24 79 1z m-917 -2 c66 -34 79 -94 28 -125 -64 -39 -143
-20 -154 37 -5 27 -2 39 17 60 22 23 52 41 72 42 4 1 21 -6 37 -14z m7316 -12
c44 -55 47 -63 34 -88 -30 -57 -130 -63 -185 -12 -20 19 -4 66 33 98 29 26 41
30 70 26 19 -4 41 -14 48 -24z m-8217 -9 c38 -32 41 -67 6 -90 -51 -33 -125
-12 -125 36 0 31 43 80 71 80 9 0 31 -12 48 -26z m2156 -6 c31 -27 36 -36 31
-62 -5 -24 -46 -80 -46 -62 0 3 -10 2 -22 -3 -29 -11 -102 4 -127 26 -25 21
-27 61 -3 89 25 29 45 39 91 42 33 2 46 -3 76 -30z m6347 20 c33 -27 47 -59
36 -83 -23 -51 -96 -59 -140 -15 -29 30 -30 31 -13 58 24 38 45 52 75 52 14 0
33 -6 42 -12z m322 -14 c33 -34 33 -67 0 -93 -36 -28 -91 -27 -121 1 -30 28
-29 56 4 90 35 37 81 38 117 2z m-9124 -6 c41 -44 22 -88 -42 -95 -40 -5 -47
-2 -66 22 -50 64 51 133 108 73z m9385 -2 c15 -22 15 -27 0 -55 -8 -17 -27
-38 -41 -48 -25 -16 -27 -16 -44 7 -33 44 -4 120 46 120 14 0 30 -10 39 -24z
m-5975 -60 c0 -47 -40 -76 -105 -76 -36 0 -60 6 -74 18 -28 23 -37 71 -18 97
13 17 18 18 41 7 37 -17 54 -15 84 8 l25 20 24 -22 c14 -13 23 -33 23 -52z
m6304 55 c13 -14 16 -28 12 -48 -6 -24 -12 -28 -44 -30 -61 -3 -91 39 -55 79
21 24 65 23 87 -1z m-6161 -11 c32 -26 51 -25 87 2 l30 22 25 -24 c24 -23 33
-80 12 -80 -4 0 -6 -4 -3 -8 18 -30 -151 -50 -200 -24 -11 6 -25 27 -32 47
-10 34 -9 39 13 61 29 29 35 29 68 4z m6455 8 c18 -18 15 -46 -6 -57 -33 -18
-72 -2 -72 29 0 33 54 52 78 28z m-6153 -18 c38 -25 56 -25 85 0 13 11 29 20
37 20 19 0 53 -37 53 -57 -1 -10 -12 -31 -25 -48 -23 -28 -29 -30 -105 -32
-70 -2 -83 1 -106 20 -32 27 -36 83 -9 103 25 18 34 18 70 -6z m561 3 c7 -10
14 -34 14 -54 0 -28 -6 -41 -24 -52 -22 -15 -25 -15 -39 1 -27 31 -27 73 -1
99 28 28 33 28 50 6z m2279 -180 c31 -9 55 -43 56 -80 1 -18 2 -39 2 -45 4
-75 -55 -119 -144 -108 -74 10 -97 40 -96 126 0 53 5 68 23 85 35 33 95 42
159 22z m-3636 -15 c19 -31 25 -127 10 -163 -7 -16 -11 -34 -10 -40 2 -5 0 -7
-4 -3 -4 4 -18 3 -31 -2 -13 -5 -26 -5 -29 -1 -2 5 -19 12 -37 15 -46 9 -72
48 -69 105 2 50 35 91 74 91 12 0 27 4 34 8 23 15 49 10 62 -10z m1840 -12
c20 -21 24 -34 23 -84 0 -33 -7 -70 -14 -81 -22 -36 -98 -52 -152 -31 -37 14
-57 51 -59 111 -2 57 5 70 52 101 37 25 118 16 150 -16z m1996 10 c26 -22 28
-31 29 -96 2 -70 1 -72 -32 -101 -41 -37 -55 -29 -72 41 -14 59 -9 120 14 155
20 31 26 31 61 1z m-3231 -11 c45 -29 50 -122 10 -166 -35 -39 -151 -33 -170
9 -12 28 -16 74 -9 109 12 64 105 90 169 48z m3631 11 c42 -18 55 -42 55 -101
0 -35 -6 -52 -24 -70 -46 -46 -147 -41 -179 9 -20 30 -17 117 5 139 37 37 89
45 143 23z m-6387 -89 c4 -46 1 -57 -21 -83 l-25 -29 -36 38 c-20 22 -36 49
-36 62 0 33 32 85 53 85 9 0 17 6 17 12 0 7 10 3 22 -9 15 -15 23 -38 26 -76z
m939 52 c22 -41 10 -119 -22 -157 -9 -10 -93 24 -112 45 -33 34 -31 85 3 112
15 12 35 21 45 21 11 0 19 4 19 9 0 18 55 -6 67 -30z m1506 19 c72 -66 35
-178 -58 -178 -59 0 -77 23 -79 101 -1 52 2 63 23 80 32 26 84 24 114 -3z
m918 5 c16 -10 29 -21 29 -25 0 -14 2 -22 11 -46 19 -49 -38 -112 -101 -112
-62 0 -81 11 -100 52 -21 48 -12 104 21 131 28 22 102 22 140 0z m3319 2 c37
-19 50 -43 50 -92 -1 -55 -28 -82 -89 -90 -45 -5 -52 -3 -75 22 -44 47 -34
134 17 159 40 20 61 20 97 1z m311 -8 c43 -33 49 -85 17 -134 -20 -29 -28 -33
-69 -33 -53 0 -88 29 -93 76 -3 34 17 79 41 93 24 14 85 13 104 -2z m-6397 -8
c72 -33 42 -149 -39 -149 -68 0 -98 84 -49 134 29 28 50 32 88 15z m-285 -25
c27 -34 26 -57 -1 -88 -37 -40 -91 -39 -113 4 -21 40 -19 66 7 90 32 29 81 27
107 -6z m5833 -25 c5 -30 -23 -89 -42 -89 -16 0 -27 33 -24 77 3 56 9 65 38
51 15 -6 26 -21 28 -39z m2064 23 c34 -44 -1 -112 -56 -112 -32 0 -58 26 -66
67 -12 60 84 96 122 45z m-9124 -1 c4 -3 9 -17 13 -31 7 -30 -25 -70 -55 -70
-55 0 -78 83 -30 107 23 12 56 9 72 -6z m298 -1 c24 -24 25 -48 4 -78 -19 -28
-57 -29 -84 -2 -26 26 -25 54 2 80 28 25 52 26 78 0z m7938 -24 c12 -24 12
-30 -4 -47 -21 -23 -37 -24 -69 -3 -35 23 -32 51 8 68 41 18 49 16 65 -18z
m1130 9 c9 -19 9 -31 0 -50 -24 -53 -68 -12 -52 50 4 15 13 25 23 25 10 0 23
-11 29 -25z m348 -39 c-17 -27 -40 -31 -60 -11 -23 23 -21 55 4 55 11 0 20 5
20 12 0 6 11 1 25 -12 22 -21 24 -26 11 -44z m-3880 -207 c15 -24 11 -119 -7
-148 -19 -32 -60 -44 -85 -26 -14 10 -15 16 -3 48 11 31 10 41 -6 78 l-19 41
27 24 c26 22 30 23 57 9 16 -8 32 -20 36 -26z m269 27 c40 -17 49 -43 43 -121
-7 -80 -24 -95 -113 -95 -59 0 -75 4 -90 20 -20 22 -32 111 -21 155 12 49 110
70 181 41z m294 3 c17 -6 36 -20 42 -30 13 -26 14 -107 0 -141 -14 -37 -39
-48 -109 -48 -49 0 -62 4 -81 24 -27 29 -38 119 -19 156 25 46 97 63 167 39z
m-1496 -28 c16 -16 23 -68 15 -109 -12 -57 -42 -76 -109 -70 -66 7 -82 24 -86
95 -4 66 9 91 53 99 16 3 30 7 32 8 5 6 86 -14 95 -23z m294 8 c26 -14 32 -34
28 -92 -5 -87 -24 -102 -120 -98 -54 2 -75 25 -82 92 -4 45 -2 58 16 81 29 37
103 45 158 17z m1528 -4 c20 -19 25 -34 25 -74 0 -91 -37 -128 -119 -118 -75
8 -101 42 -101 129 0 19 10 40 29 59 26 25 37 29 86 29 46 0 60 -4 80 -25z
m179 -6 c23 -18 26 -27 26 -83 0 -35 -5 -67 -12 -74 -18 -18 -56 -14 -68 7
-25 47 -14 171 15 171 7 0 24 -9 39 -21z m-2632 -10 c39 -21 30 -127 -13 -150
-26 -13 -95 0 -115 23 -29 31 -22 97 11 124 28 22 78 23 117 3z m3039 8 c29
-22 37 -68 22 -114 -14 -40 -24 -49 -72 -58 -33 -6 -77 14 -90 41 -6 14 -11
42 -11 64 0 30 6 43 26 59 30 24 99 28 125 8z m272 4 c40 -16 57 -40 57 -82 0
-53 -34 -89 -85 -89 -90 0 -120 125 -40 168 25 14 37 14 68 3z m-2988 -15 c26
-19 22 -103 -5 -131 -28 -27 -41 -10 -45 61 -3 77 12 98 50 70z m3317 -13 c25
-23 24 -87 -2 -113 -30 -30 -83 -27 -109 6 -29 37 -27 79 5 111 20 20 31 24
57 19 17 -3 39 -14 49 -23z m-4852 -28 c16 -48 -2 -82 -46 -87 -86 -10 -103
107 -19 124 35 7 54 -3 65 -37z m900 22 c14 -12 25 -26 25 -32 -5 -66 -55
-106 -106 -85 -16 7 -29 13 -29 14 0 1 -4 15 -9 33 -7 24 -5 38 10 62 23 39
71 43 109 8z m-1222 -15 c30 -39 -8 -99 -56 -87 -32 8 -42 21 -42 57 0 50 65
70 98 30z m5770 5 c20 -15 15 -75 -7 -87 -45 -23 -91 2 -91 51 0 46 57 67 98
36z m-6088 -5 c18 -15 22 -25 16 -46 -4 -15 -13 -29 -21 -33 -53 -20 -97 45
-55 79 28 22 32 22 60 0z m-1530 -7 c18 -22 4 -65 -21 -65 -17 0 -19 6 -17 40
2 42 16 51 38 25z m923 4 c12 -7 23 -13 25 -14 1 -1 -3 -14 -9 -29 -10 -22
-18 -26 -43 -24 -24 2 -32 9 -34 26 -4 24 13 52 30 52 5 0 19 -5 31 -11z
m5217 -25 c0 -14 -6 -24 -14 -24 -8 0 -13 8 -11 18 2 9 4 23 4 30 2 24 21 1
21 -24z m1764 20 c20 -19 20 -38 1 -54 -18 -15 -45 -10 -59 12 -8 13 -6 22 8
37 23 25 30 26 50 5z m316 -29 c0 -18 -7 -26 -24 -31 -34 -8 -46 2 -46 36 0
19 6 30 18 33 28 6 52 -12 52 -38z m-7611 17 c7 -13 6 -23 -1 -30 -26 -26 -64
-2 -47 30 5 10 16 18 24 18 8 0 19 -8 24 -18z m6716 -16 c0 -37 -15 -42 -46
-16 -24 20 -24 20 -4 35 29 23 50 15 50 -19z m-7022 10 c7 -18 -24 -31 -34
-14 -4 6 -5 16 -3 20 8 13 31 9 37 -6z m4891 -237 c26 -12 36 -35 36 -84 0
-52 -32 -76 -95 -69 -52 5 -70 25 -70 80 0 36 5 50 24 65 26 21 68 25 105 8z
m321 -9 c10 -8 15 -31 15 -66 0 -43 -4 -56 -22 -68 -28 -20 -87 -21 -115 -1
-43 30 -37 125 9 145 28 12 94 6 113 -10z m297 -9 c26 -25 28 -90 2 -115 -20
-20 -107 -22 -123 -2 -11 13 -16 56 -13 99 2 23 59 48 92 40 14 -3 33 -13 42
-22z m-1221 0 c18 -15 23 -28 23 -60 -1 -22 -7 -48 -14 -56 -17 -21 -103 -20
-125 1 -23 24 -18 101 9 120 29 20 79 17 107 -5z m-613 -19 c31 -40 1 -102
-49 -102 -35 0 -59 24 -59 59 0 62 70 91 108 43z m932 9 c32 -61 -14 -153 -57
-110 -9 9 -8 83 2 117 7 19 43 14 55 -7z m1499 -7 c40 -51 15 -104 -48 -106
-44 -1 -74 28 -67 66 14 67 77 89 115 40z m-379 -4 c11 -11 20 -28 20 -37 -1
-39 -48 -70 -65 -42 -4 6 -7 25 -7 44 0 58 18 69 52 35z m678 8 c17 -17 15
-74 -4 -92 -34 -35 -94 -6 -94 45 0 15 7 35 16 43 18 19 65 21 82 4z m-3673
-48 c0 -21 -28 -19 -31 3 -2 12 3 17 14 15 9 -2 17 -10 17 -18z m2453 -262
c18 -18 15 -75 -4 -82 -31 -12 -73 -6 -82 12 -12 21 -5 64 11 74 18 12 62 9
75 -4z m307 -12 c12 -18 13 -30 6 -50 -9 -21 -17 -26 -45 -26 -51 0 -75 50
-40 84 23 24 61 20 79 -8z m-1231 -1 c18 -19 7 -58 -18 -63 -36 -7 -60 40 -34
66 16 16 33 15 52 -3z m1824 3 c20 -20 14 -58 -10 -67 -33 -12 -58 4 -58 38 0
15 3 31 7 34 11 11 48 8 61 -5z m-1512 -13 c4 -8 3 -23 0 -32 -6 -15 -8 -15
-22 -2 -8 9 -12 23 -8 32 8 21 23 22 30 2z m1813 1 c16 -20 3 -46 -24 -46 -25
0 -38 21 -29 45 8 19 38 19 53 1z m-649 -16 c0 -5 -7 -10 -15 -10 -8 0 -15 5
-15 10 0 6 7 10 15 10 8 0 15 -4 15 -10z m-883 -305 c3 -9 3 -18 1 -21 -9 -9
-38 8 -38 22 0 19 29 18 37 -1z m311 -2 c-5 -26 -38 -29 -38 -4 0 15 6 21 21
21 14 0 19 -5 17 -17z m302 -3 c0 -11 -4 -20 -9 -20 -13 0 -32 26 -24 33 13
14 33 6 33 -13z"/>
<path d="M5194 12572 c-63 -10 -90 -108 -44 -157 46 -49 140 -25 156 40 17 70
-39 129 -112 117z"/>
<path d="M5686 12456 c-9 -34 -7 -46 9 -46 9 0 27 -7 40 -16 28 -18 69 -15 73
6 1 9 -20 26 -57 46 -58 30 -60 30 -65 10z"/>
<path d="M7551 10741 c-8 -5 -12 -18 -8 -30 3 -12 0 -21 -6 -21 -18 0 2 -14
23 -15 23 -2 32 18 24 51 -7 26 -12 28 -33 15z"/>
<path d="M8770 10599 c0 -5 5 -7 10 -4 6 3 10 8 10 11 0 2 -4 4 -10 4 -5 0
-10 -5 -10 -11z"/>
<path d="M8774 10562 c-6 -4 -7 -17 -3 -32 4 -14 8 -23 9 -20 1 4 6 60 5 60 0
0 -5 -4 -11 -8z"/>
<path d="M8972 10545 c1 -14 8 -25 15 -25 16 0 13 38 -4 44 -8 4 -12 -3 -11
-19z"/>
<path d="M7134 10488 c-4 -6 -3 -8 4 -4 6 3 13 3 15 -1 3 -5 -28 -8 -68 -8
-40 0 -71 3 -68 8 2 4 -14 7 -36 7 -23 0 -41 -4 -41 -10 0 -5 -6 -10 -14 -10
-23 0 -29 -18 -21 -67 5 -33 12 -47 26 -50 10 -3 19 -8 19 -12 0 -8 214 -6
228 3 18 11 29 60 20 91 -10 35 -53 71 -64 53z"/>
<path d="M7542 10471 c-34 -21 -15 -121 24 -121 35 0 49 94 17 118 -20 14 -24
14 -41 3z"/>
<path d="M7960 10467 c-17 -9 -25 -22 -27 -47 -5 -64 31 -86 142 -83 114 3
112 3 128 21 17 20 28 72 15 72 -5 0 -7 4 -4 8 2 4 1 14 -4 22 -11 18 -215 24
-250 7z"/>
<path d="M7739 10463 c-7 -36 -5 -93 3 -93 5 0 7 -4 4 -9 -3 -5 1 -12 10 -15
22 -9 22 -9 39 24 18 35 19 72 3 88 -13 13 -57 16 -59 5z"/>
<path d="M8335 10460 c-11 -17 -8 -84 3 -88 7 -2 10 -8 6 -13 -3 -5 6 -9 21
-9 19 0 29 8 42 35 16 34 16 35 -11 60 -28 26 -51 32 -61 15z"/>
<path d="M3798 9329 c-10 -5 -18 -14 -18 -20 0 -15 43 -28 74 -22 26 5 45 27
33 39 -10 11 -73 13 -89 3z"/>
<path d="M4125 9333 c-31 -7 -38 -19 -21 -36 15 -15 34 -15 77 -2 18 6 27 34
12 36 -5 0 -17 2 -28 3 -11 2 -29 1 -40 -1z"/>
<path d="M4413 9334 c-17 -7 -17 -40 0 -47 7 -3 37 -3 66 -2 57 4 83 17 64 36
-11 11 -111 22 -130 13z"/>
<path d="M4661 9316 c-11 -13 -10 -17 4 -22 20 -8 68 7 69 21 1 17 -60 17 -73
1z"/>
<path d="M7339 8359 c-13 -16 -24 -33 -25 -37 0 -4 -9 -25 -18 -46 -13 -30
-15 -41 -5 -46 6 -5 15 -39 18 -77 4 -38 13 -80 22 -94 12 -18 13 -32 7 -58
-6 -23 -5 -43 3 -64 10 -24 10 -32 1 -35 -15 -5 -42 -66 -42 -96 0 -28 36 -86
53 -86 15 0 47 61 47 90 0 11 -10 41 -22 66 -17 37 -19 50 -10 65 15 24 15 44
0 68 -9 14 -8 27 5 60 10 23 17 55 17 72 0 45 17 69 48 69 15 0 34 -4 42 -10
14 -9 58 10 87 37 16 14 -9 21 -128 32 -3 1 -17 22 -30 49 -36 71 -42 75 -70
41z"/>
<path d="M3805 8249 c-21 -13 -25 -19 -12 -19 9 0 17 -4 17 -8 0 -14 51 -12
72 2 20 14 17 19 -23 34 -18 7 -32 4 -54 -9z"/>
<path d="M6568 8263 c-30 -8 -21 -46 15 -70 30 -21 45 -23 152 -23 118 0 118
0 161 33 24 17 44 35 44 39 1 18 -76 28 -209 27 -80 -1 -154 -3 -163 -6z"/>
<path d="M7759 8266 c-3 -3 -16 -7 -29 -9 -34 -5 -36 -23 -3 -36 15 -6 35 -16
44 -22 13 -10 27 -7 67 11 74 34 69 47 -20 56 -29 3 -56 3 -59 0z"/>
<path d="M8025 8255 l-40 -12 48 -23 c26 -12 47 -26 47 -30 0 -13 22 -6 61 18
20 12 44 22 53 22 32 0 15 18 -28 29 -55 14 -89 13 -141 -4z"/>
<path d="M4103 8254 c-20 -8 -3 -32 26 -39 15 -3 40 -1 56 5 27 10 27 11 9 25
-18 14 -67 18 -91 9z"/>
<path d="M7140 8246 c0 -21 24 -36 54 -34 29 3 37 32 10 42 -28 11 -64 6 -64
-8z"/>
<path d="M5478 8242 c-10 -2 -18 -8 -18 -13 0 -6 4 -8 9 -5 5 3 12 -1 15 -10
5 -13 9 -14 21 -4 8 6 19 9 25 5 5 -3 10 -2 10 4 0 19 -30 31 -62 23z"/>
<path d="M5611 8234 c0 -11 3 -14 6 -6 3 7 2 16 -1 19 -3 4 -6 -2 -5 -13z"/>
<path d="M5634 8239 c-10 -16 17 -29 46 -22 31 7 34 9 25 22 -8 14 -62 14 -71
0z"/>
<path d="M4264 8233 c12 -12 54 -14 61 -3 4 6 -8 10 -31 10 -21 0 -34 -3 -30
-7z"/>
<path d="M5776 8214 c-5 -13 -3 -14 7 -6 7 6 25 9 40 8 15 -2 29 0 32 3 2 4
-13 8 -34 9 -28 2 -40 -2 -45 -14z"/>
<path d="M7345 7680 c-4 -6 -5 -23 -4 -38 1 -15 -7 -43 -20 -62 -27 -42 -25
-118 4 -150 22 -24 23 -115 1 -139 -15 -17 -46 -113 -46 -141 0 -10 14 -34 30
-55 17 -21 30 -46 30 -56 0 -12 5 -16 15 -13 13 6 28 33 22 44 -1 3 11 19 26
35 19 21 26 36 21 50 -3 11 -12 41 -19 66 -7 26 -20 60 -28 75 -17 34 -14 81
8 143 19 56 19 92 -1 139 -9 20 -16 54 -15 75 2 35 -10 49 -24 27z"/>
<path d="M3944 7188 c-44 -34 -57 -48 -50 -55 3 -4 6 -3 6 1 0 3 12 0 28 -7
16 -9 49 -13 82 -11 73 4 80 6 74 16 -3 4 0 8 6 8 8 0 7 4 -2 13 -35 34 -73
57 -93 57 -12 0 -35 -10 -51 -22z"/>
<path d="M5759 7190 c-13 -11 -30 -25 -37 -31 -33 -28 7 -46 104 -48 89 -1
113 34 51 77 -41 27 -86 28 -118 2z"/>
<path d="M6374 7188 c-41 -31 -45 -41 -29 -58 22 -21 139 -20 161 2 15 15 14
18 -16 44 -40 36 -79 40 -116 12z"/>
<path d="M6669 7179 c-29 -29 -30 -32 -15 -47 25 -26 133 -24 152 2 12 18 11
22 -18 48 -42 37 -79 36 -119 -3z"/>
<path d="M6985 7184 c-30 -32 -31 -40 -6 -54 40 -21 131 -7 131 21 0 18 -54
58 -78 59 -13 0 -34 -12 -47 -26z"/>
<path d="M7601 7181 c-18 -24 -19 -30 -7 -41 16 -13 67 -17 85 -6 28 18 -4 76
-42 76 -8 0 -25 -13 -36 -29z"/>
<path d="M7910 7181 c-6 -16 -9 -35 -5 -40 8 -14 55 -14 75 -1 13 8 13 13 0
37 -22 40 -54 42 -70 4z"/>
<path d="M8226 7178 c-8 -33 -8 -35 14 -41 25 -6 41 13 33 41 -7 29 -39 28
-47 0z"/>
<path d="M8070 7136 c0 -20 35 -60 46 -53 5 3 11 18 12 34 2 25 -2 29 -28 31
-20 2 -30 -2 -30 -12z"/>
<path d="M7785 7131 c-3 -5 0 -13 6 -17 7 -4 9 -3 5 4 -3 5 0 13 6 15 9 4 10
6 1 6 -6 1 -14 -3 -18 -8z"/>
<path d="M4190 7003 c0 -3 5 -13 10 -24 7 -13 7 -19 0 -19 -5 0 -10 -5 -10
-11 0 -5 6 -7 13 -3 8 6 8 3 -1 -9 -8 -9 -11 -21 -8 -26 4 -5 2 -12 -3 -15 -4
-3 -8 -29 -7 -58 l1 -53 85 -1 c47 -1 87 -2 90 -4 16 -6 45 -8 52 -4 5 3 3 13
-4 22 -9 11 -10 14 -1 8 17 -10 10 48 -8 71 -9 11 -10 14 -1 9 7 -4 12 -2 12
8 0 8 -4 17 -9 20 -4 3 -5 24 -1 46 8 46 6 50 -32 50 -20 0 -27 -4 -22 -12 5
-7 3 -8 -7 -3 -13 9 -149 15 -149 8z m127 -30 c0 -9 -4 -10 -14 -2 -7 6 -13
12 -13 14 0 1 6 2 13 2 8 0 14 -6 14 -14z m-67 -69 c0 -2 -9 -4 -20 -4 -11 0
-20 4 -20 9 0 5 9 7 20 4 11 -3 20 -7 20 -9z m70 12 c0 -2 -8 -10 -17 -17 -16
-13 -17 -12 -4 4 13 16 21 21 21 13z"/>
<path d="M3988 6933 c-19 -5 -33 -33 -15 -33 9 0 8 -3 -1 -9 -10 -6 -8 -10 9
-14 29 -8 39 -1 39 28 0 27 -7 33 -32 28z"/>
<path d="M4567 6931 c-7 -13 -7 -64 0 -58 3 4 12 2 20 -4 9 -8 17 -8 26 0 8 6
17 7 21 3 4 -4 6 9 4 28 -4 31 -8 35 -36 36 -18 1 -34 -1 -35 -5z m21 -36 c-3
-3 -9 2 -12 12 -6 14 -5 15 5 6 7 -7 10 -15 7 -18z"/>
<path d="M5204 6929 c-3 -5 -9 -7 -14 -4 -5 3 -12 -6 -16 -21 -4 -17 -2 -29 7
-35 34 -22 69 -1 66 38 -1 22 -33 38 -43 22z m19 -14 c4 -8 3 -16 -1 -19 -4
-3 -9 4 -9 15 -2 23 3 25 10 4z"/>
<path d="M5477 6913 c-7 -32 11 -51 45 -48 26 2 37 37 18 60 -9 11 -17 12 -32
4 -15 -8 -19 -8 -14 0 4 6 3 11 -2 11 -5 0 -12 -12 -15 -27z"/>
<path d="M5796 6925 c17 -14 17 -14 1 -9 -16 6 -18 2 -15 -22 3 -30 22 -38 47
-20 12 9 13 8 7 -4 -7 -11 -4 -11 9 2 12 11 15 22 10 35 -5 10 -7 21 -7 26 1
4 -15 7 -35 7 -35 0 -36 -1 -17 -15z"/>
<path d="M6419 6933 c-9 -2 -21 -15 -27 -28 -10 -21 -8 -26 8 -35 43 -23 77 3
49 37 -8 9 -12 18 -11 20 6 7 -2 10 -19 6z"/>
<path d="M6699 6937 c0 -1 -3 -16 -5 -34 -4 -26 -1 -33 18 -39 13 -4 24 -2 26
4 2 6 10 8 18 5 8 -3 14 0 14 6 0 6 -7 11 -16 11 -14 0 -14 3 -4 15 7 9 10 18
6 22 -5 6 -55 14 -57 10z m36 -27 c-3 -5 -11 -10 -16 -10 -6 0 -7 5 -4 10 3 6
11 10 16 10 6 0 7 -4 4 -10z"/>
<path d="M7006 6917 c-7 -27 14 -50 38 -41 23 9 17 45 -11 55 -17 6 -22 3 -27
-14z"/>
<path d="M3667 6910 c-3 -11 1 -21 10 -24 26 -10 33 -6 31 17 -2 28 -34 34
-41 7z"/>
<path d="M7631 6923 c-1 -6 -4 -18 -7 -27 -4 -12 0 -16 15 -16 15 0 21 6 21
21 0 11 -4 18 -9 15 -5 -4 -12 0 -14 6 -4 9 -6 9 -6 1z"/>
<path d="M7933 6905 c0 -8 7 -15 15 -15 7 0 12 5 10 12 -6 18 -25 21 -25 3z"/>
<path d="M6614 6698 c-4 -7 -2 -8 4 -4 7 4 12 1 12 -9 0 -9 -4 -14 -8 -11 -5
3 -8 -41 -7 -97 l1 -102 117 -2 c64 -1 117 1 118 5 4 28 4 119 0 127 -4 6 -6
30 -6 55 l0 45 -112 2 c-72 1 -115 -2 -119 -9z"/>
<path d="M6431 6641 c-1 -7 -7 -11 -16 -7 -18 7 -33 -19 -27 -49 3 -16 12 -24
33 -27 16 -3 29 -1 29 4 0 5 4 7 9 4 5 -4 8 9 7 26 -4 48 -5 50 -15 44 -5 -4
-12 0 -14 6 -4 10 -6 10 -6 -1z"/>
<path d="M4283 6624 c-5 -13 -7 -13 -15 -2 -5 8 -7 3 -5 -17 3 -26 8 -30 36
-31 17 -1 34 3 37 8 3 4 0 8 -7 8 -6 0 -9 8 -6 20 3 11 1 23 -4 26 -5 3 -9 0
-9 -5 0 -6 -5 -11 -11 -11 -5 0 -7 5 -4 10 3 6 4 10 0 10 -3 0 -8 -7 -12 -16z"/>
<path d="M4565 6631 c-11 -19 18 -61 42 -61 12 0 23 5 23 11 0 5 5 7 10 4 12
-8 12 13 -1 40 -9 18 -9 18 -5 -3 4 -20 2 -21 -11 -10 -9 7 -25 12 -36 10 -12
-2 -17 1 -13 7 4 6 5 11 2 11 -3 0 -7 -4 -11 -9z"/>
<path d="M5169 6630 c-5 -35 0 -74 8 -67 3 4 12 2 18 -3 7 -6 20 -7 29 -4 23
9 18 69 -6 69 -9 0 -20 4 -24 8 -10 10 -24 9 -25 -3z"/>
<path d="M5772 6603 c2 -25 8 -35 24 -39 42 -11 57 -1 60 36 l3 35 -45 1 c-44
0 -44 0 -42 -33z"/>
<path d="M7011 6619 c-20 -19 -21 -23 -8 -36 9 -9 23 -12 39 -8 20 5 24 11 20
31 -2 13 -8 22 -12 19 -5 -3 -10 0 -12 5 -2 6 -14 1 -27 -11z"/>
<path d="M3665 6611 c-6 -16 19 -41 41 -41 13 0 25 34 15 46 -10 15 -50 11
-56 -5z"/>
<path d="M7626 6613 c-10 -25 11 -40 29 -22 13 13 12 16 -4 26 -16 10 -20 9
-25 -4z"/>
<path d="M3960 6601 c0 -10 6 -21 13 -24 17 -6 57 10 57 23 0 6 -4 9 -9 5 -5
-3 -12 -1 -16 5 -11 18 -45 11 -45 -9z"/>
<path d="M7935 6611 c-3 -5 -1 -12 5 -16 5 -3 10 1 10 9 0 18 -6 21 -15 7z"/>
<path d="M4550 6591 c0 -6 4 -13 10 -16 6 -3 7 1 4 9 -7 18 -14 21 -14 7z"/>
<path d="M7789 6452 c-28 -5 -28 -38 -2 -68 13 -16 22 -24 19 -18 -3 6 3 24
13 41 17 27 17 30 2 39 -9 6 -23 8 -32 6z"/>
<path d="M4135 6440 c4 -6 11 -8 16 -5 14 9 11 15 -7 15 -8 0 -12 -5 -9 -10z"/>
<path d="M4579 6322 c-30 -35 15 -90 47 -58 18 19 18 43 0 62 -19 19 -28 18
-47 -4z"/>
<path d="M6388 6314 c-16 -34 0 -59 38 -59 22 0 30 6 34 25 15 57 -48 87 -72
34z"/>
<path d="M4273 6318 c-18 -29 -9 -49 24 -54 19 -3 35 23 28 46 -7 22 -39 27
-52 8z"/>
<path d="M5177 6323 c-11 -11 -8 -48 5 -61 30 -30 75 0 64 43 -5 19 -13 25
-35 25 -15 0 -31 -3 -34 -7z"/>
<path d="M6697 6324 c-11 -12 -8 -51 6 -62 19 -16 21 -16 45 -3 17 9 22 19 20
39 -2 22 -9 28 -33 30 -17 2 -34 0 -38 -4z"/>
<path d="M3971 6306 c-9 -11 -8 -18 5 -31 15 -15 19 -15 32 -1 17 17 10 46
-11 46 -8 0 -20 -6 -26 -14z"/>
<path d="M7020 6310 c-13 -8 -13 -11 1 -25 13 -14 17 -14 27 -2 16 19 -7 40
-28 27z"/>
<path d="M6870 6112 c-33 -38 -43 -68 -31 -91 15 -27 62 -28 86 -1 17 18 16
21 -5 65 -24 50 -29 53 -50 27z"/>
<path d="M6554 6093 c-25 -25 -29 -65 -9 -80 49 -35 116 19 70 57 -8 7 -15 18
-15 25 0 16 -29 15 -46 -2z"/>
<path d="M6683 6059 c-22 -6 -33 -16 -33 -28 0 -19 62 -81 80 -81 18 0 70 57
70 77 0 12 -11 25 -25 31 -30 14 -47 14 -92 1z"/>
<path d="M7003 6058 c-44 -11 -45 -48 -4 -77 16 -12 33 -21 39 -21 17 0 62 52
62 71 0 11 -1 19 -3 19 -1 0 -16 4 -32 8 -17 5 -45 5 -62 0z"/>
<path d="M7607 6048 c-11 -9 -15 -21 -11 -35 12 -44 78 -41 87 3 7 38 -40 58
-76 32z"/>
<path d="M4672 10537 c-10 -12 -10 -16 2 -20 8 -3 20 2 28 11 8 9 8 13 1 9 -6
-4 -13 -2 -15 4 -2 7 -8 6 -16 -4z"/>
<path d="M4595 10510 c3 -5 12 -7 20 -3 21 7 19 13 -6 13 -11 0 -18 -4 -14
-10z"/>
<path d="M5900 10620 c0 -5 5 -10 11 -10 5 0 7 5 4 10 -3 6 -8 10 -11 10 -2 0
-4 -4 -4 -10z"/>
<path d="M4265 10540 c4 -6 11 -8 16 -5 14 9 11 15 -7 15 -8 0 -12 -5 -9 -10z"/>
<path d="M2960 10495 c0 -8 4 -15 8 -15 5 0 9 7 9 15 0 8 -4 15 -9 15 -4 0 -8
-7 -8 -15z"/>
<path d="M1673 9333 c-7 -3 -13 -13 -13 -24 0 -16 7 -19 54 -19 38 0 56 4 59
15 4 8 1 17 -5 21 -13 8 -78 13 -95 7z"/>
<path d="M1978 9333 c-10 -2 -18 -13 -18 -24 0 -19 4 -21 68 -23 40 -2 60 17
42 39 -12 14 -55 18 -92 8z"/>
<path d="M1555 7176 c-5 -11 -3 -21 6 -26 19 -12 21 -7 10 21 -8 22 -10 22
-16 5z"/>
<path d="M2167 7179 c7 -7 15 -10 18 -7 3 3 -2 9 -12 12 -14 6 -15 5 -6 -5z"/>
<path d="M1857 7165 c-8 -18 11 -31 25 -17 11 11 3 32 -12 32 -4 0 -10 -7 -13
-15z"/>
<path d="M1681 7153 c-25 -17 -28 -68 -5 -94 12 -14 20 -15 44 -6 36 14 53 48
40 82 -5 14 -13 25 -17 26 -5 0 -16 2 -25 4 -9 2 -26 -4 -37 -12z"/>
<path d="M2015 7163 c-32 -8 -42 -21 -40 -54 3 -57 65 -61 79 -4 5 20 -8 69
-17 64 -1 -1 -11 -4 -22 -6z"/>
<path d="M2142 7158 c5 -14 48 -20 48 -8 0 8 -25 20 -42 20 -5 0 -8 -6 -6 -12z"/>
<path d="M1992 6762 c-13 -9 -8 -35 11 -60 8 -11 13 -9 22 9 22 40 1 72 -33
51z"/>
<path d="M2581 9323 c-23 -17 -1 -36 45 -37 43 -1 71 27 44 44 -19 13 -68 9
-89 -7z"/>
<path d="M2892 9332 c-18 -6 -14 -39 4 -46 40 -15 115 20 84 39 -12 7 -73 12
-88 7z"/>
<path d="M3192 9324 c-20 -15 -8 -31 28 -39 35 -8 72 10 68 33 -4 20 -72 24
-96 6z"/>
<path d="M2898 8262 c-40 -5 -41 -27 -1 -46 32 -15 37 -15 59 -1 47 31 17 56
-58 47z"/>
<path d="M3188 8248 c-11 -33 50 -50 84 -24 13 10 15 15 6 24 -16 16 -85 15
-90 0z"/>
<path d="M3046 7185 c-23 -35 -20 -52 12 -58 70 -14 105 19 62 58 -31 28 -56
28 -74 0z"/>
<path d="M2454 7174 c-14 -21 -15 -27 -4 -34 13 -8 48 -5 58 5 7 7 -19 55 -29
55 -5 0 -16 -12 -25 -26z"/>
<path d="M2760 7187 c0 -9 -5 -17 -12 -19 -24 -8 1 -38 32 -38 34 0 49 23 33
49 -13 21 -53 27 -53 8z"/>
<path d="M2612 7149 c-18 -7 -22 -14 -16 -31 14 -49 20 -52 42 -21 17 24 19
33 9 46 -9 11 -18 13 -35 6z"/>
<path d="M2910 7140 c-14 -8 -5 -50 11 -50 6 0 8 4 5 9 -3 5 2 8 12 7 11 0 17
6 17 18 0 20 -24 29 -45 16z"/>
<path d="M3078 6912 c-10 -2 -18 -8 -18 -13 0 -13 27 -11 35 2 9 13 4 16 -17
11z"/>
<path d="M3083 6600 c-2 -19 8 -26 20 -14 7 7 -2 34 -12 34 -4 0 -7 -9 -8 -20z"/>
<path d="M3224 6462 c-19 -13 -24 -43 -10 -58 21 -21 33 -17 40 13 8 29 -11
57 -30 45z"/>
<path d="M255 9333 c-47 -9 -51 -14 -31 -29 23 -17 62 -18 72 -3 9 16 -17 36
-41 32z"/>
<path d="M418 9332 c-20 -4 -24 -27 -7 -38 18 -11 150 -7 162 5 21 21 -12 36
-76 37 -34 0 -70 -2 -79 -4z"/>
<path d="M738 9332 c-10 -2 -18 -10 -18 -17 0 -26 34 -31 234 -30 176 0 200 2
210 17 5 9 7 21 2 25 -8 8 -394 13 -428 5z"/>
<path d="M208 8257 c-32 -13 -38 -24 -27 -54 10 -27 43 -30 96 -8 49 21 106
19 158 -5 42 -19 105 -24 105 -9 0 4 17 13 38 22 46 18 142 8 189 -19 31 -18
31 -18 83 10 64 35 141 37 204 6 52 -25 62 -25 93 0 14 11 33 20 43 20 9 0 25
9 35 19 16 19 16 20 -1 22 -11 1 -237 3 -504 4 -323 2 -494 -1 -512 -8z"/>
<path d="M452 7173 c-54 -46 -128 -57 -170 -26 -15 11 -42 28 -60 37 l-33 17
-18 -41 c-18 -41 -17 -90 2 -90 6 0 8 -3 4 -6 -3 -3 -1 -12 6 -18 12 -13 57
-9 57 5 0 5 7 6 15 3 8 -4 67 -7 130 -8 63 0 115 -4 115 -8 0 -5 7 -8 15 -8 8
0 15 4 15 9 0 6 58 9 143 7 103 -2 154 1 185 12 23 7 42 16 42 18 0 17 -48 84
-77 106 -34 27 -37 27 -181 27 l-147 0 -43 -36z"/>
<path d="M497 6953 c-10 -10 -8 -33 2 -33 6 0 9 9 8 20 -1 23 -1 22 -10 13z"/>
</g>
</svg>
